<svg id="svg" version="1.1" xmlns="http://www.w3.org/2000/svg" xmlns:xlink="http://www.w3.org/1999/xlink" width="400" height="399.6551724137931" viewBox="0, 0, 400,399.6551724137931"><g id="svgg"><path id="path0" d="M189.828 0.227 C 71.993 7.233,-13.615 110.493,1.933 226.865 C 15.758 330.342,108.929 406.504,212.931 399.343 C 337.725 390.751,423.807 272.809,393.912 151.379 C 371.294 59.504,283.721 -5.356,189.828 0.227 M218.793 10.852 C 324.881 22.161,400.666 116.296,388.613 221.791 C 377.155 322.084,287.544 396.498,186.851 389.340 C 75.161 381.399,-5.705 279.041,12.611 168.793 C 28.935 70.533,120.521 0.376,218.793 10.852 M193.793 30.883 C 189.147 31.123,184.608 31.333,183.707 31.350 L 182.069 31.379 182.069 33.448 L 182.069 35.517 183.744 35.517 L 185.418 35.517 185.633 38.534 C 185.751 40.194,185.952 44.539,186.080 48.190 L 186.312 54.828 184.707 54.828 L 183.103 54.828 183.103 56.897 L 183.103 58.966 184.569 58.971 C 185.375 58.974,190.341 58.790,195.603 58.563 L 205.172 58.149 205.172 53.902 L 205.172 49.655 202.931 49.655 L 200.690 49.655 200.690 51.855 L 200.690 54.055 196.293 54.214 C 191.024 54.405,191.595 54.836,191.436 50.548 L 191.305 46.999 195.216 46.752 C 197.368 46.616,199.138 46.476,199.150 46.442 C 199.162 46.407,199.110 45.465,199.034 44.347 L 198.896 42.315 194.965 42.508 L 191.034 42.702 191.031 40.920 C 191.030 39.940,190.932 38.334,190.814 37.352 L 190.599 35.565 191.765 35.380 C 192.406 35.278,194.522 35.146,196.466 35.085 L 200.000 34.976 200.000 36.971 L 200.000 38.966 202.241 38.966 L 204.483 38.966 204.480 36.983 C 204.474 32.075,204.121 30.340,203.140 30.395 C 202.646 30.423,198.440 30.642,193.793 30.883 M222.601 33.017 C 222.472 33.728,222.286 34.648,222.187 35.060 C 222.031 35.713,222.200 35.847,223.504 36.104 C 225.479 36.493,225.484 36.194,223.328 46.552 L 221.498 55.345 220.490 55.207 C 218.116 54.881,218.126 54.875,217.796 56.818 C 217.626 57.818,217.561 58.710,217.652 58.801 C 217.775 58.925,229.396 61.379,229.857 61.379 C 229.958 61.379,230.690 58.043,230.690 57.587 C 230.690 57.416,229.755 57.092,228.612 56.867 C 226.968 56.544,226.568 56.343,226.696 55.902 C 226.785 55.595,227.042 54.371,227.268 53.181 C 227.767 50.553,227.634 50.641,230.287 51.195 C 232.963 51.753,232.480 51.031,234.365 57.287 L 235.972 62.620 239.352 63.324 L 242.733 64.028 243.114 62.191 C 243.574 59.974,243.489 59.805,241.773 59.531 L 240.428 59.315 239.085 55.398 L 237.742 51.481 239.196 51.092 C 245.865 49.308,246.386 38.955,239.973 35.681 C 238.809 35.088,224.342 31.724,222.952 31.724 C 222.888 31.724,222.730 32.306,222.601 33.017 M152.414 37.831 C 145.871 39.825,140.466 41.503,140.403 41.561 C 140.306 41.649,142.376 49.347,142.551 49.553 C 142.693 49.718,146.207 48.547,146.203 48.336 C 146.201 48.208,145.968 47.341,145.685 46.409 C 145.068 44.375,144.822 44.652,148.136 43.654 C 151.493 42.642,150.841 41.698,153.932 52.041 C 157.030 62.409,156.900 61.210,154.980 61.693 C 153.693 62.017,153.444 62.203,153.609 62.720 C 153.719 63.068,153.999 63.968,154.232 64.721 L 154.655 66.089 160.393 64.375 L 166.132 62.660 165.623 61.072 C 165.343 60.198,165.056 59.293,164.985 59.062 C 164.887 58.740,164.515 58.761,163.401 59.155 C 162.600 59.437,161.832 59.549,161.695 59.403 C 161.386 59.075,156.083 41.376,156.255 41.247 C 156.488 41.071,161.550 39.653,161.940 39.654 C 162.153 39.655,162.413 40.082,162.518 40.603 C 162.623 41.125,162.866 41.966,163.059 42.472 L 163.410 43.392 165.039 42.902 C 165.936 42.632,166.737 42.343,166.821 42.260 C 166.964 42.117,164.550 34.099,164.387 34.172 C 164.345 34.191,158.957 35.837,152.414 37.831 M233.621 38.284 C 240.733 39.659,241.533 47.627,234.553 47.574 C 233.145 47.563,229.093 46.800,228.791 46.489 C 228.370 46.055,230.504 37.588,230.999 37.728 C 231.303 37.813,232.483 38.064,233.621 38.284 M119.223 52.080 C 111.548 54.001,107.302 60.829,110.531 66.060 C 112.746 69.648,115.865 70.241,123.192 68.469 C 127.907 67.328,129.065 67.454,130.095 69.218 C 132.126 72.695,124.835 76.973,121.893 74.030 L 120.751 72.889 118.472 74.224 L 116.193 75.559 116.803 76.606 C 119.102 80.549,123.153 81.244,128.505 78.616 C 140.118 72.913,136.697 60.247,124.316 63.110 C 118.275 64.507,117.740 64.596,116.801 64.360 C 114.730 63.841,113.825 61.437,115.045 59.696 C 116.999 56.905,121.024 56.062,122.885 58.054 L 123.966 59.211 125.948 58.038 C 128.192 56.712,128.262 56.509,127.080 54.770 C 125.447 52.367,122.334 51.301,119.223 52.080 M293.450 62.971 C 288.133 64.893,282.548 72.241,282.163 77.820 C 281.517 87.179,294.412 94.528,300.514 88.279 C 301.250 87.526,301.765 86.822,301.659 86.716 C 299.758 84.815,297.769 83.824,297.092 84.439 C 293.370 87.820,286.813 83.891,287.323 78.586 C 287.637 75.315,291.436 69.830,294.455 68.290 C 300.135 65.392,306.365 70.944,303.384 76.247 C 302.532 77.763,302.364 77.472,305.291 79.545 L 306.617 80.484 307.297 79.638 C 313.487 71.945,303.127 59.474,293.450 62.971 M83.701 77.792 C 74.795 86.253,75.447 85.317,77.240 87.068 L 78.618 88.413 79.771 87.296 L 80.923 86.179 87.573 93.116 L 94.222 100.053 93.092 101.219 L 91.962 102.385 93.257 103.965 C 94.375 105.330,94.629 105.485,95.121 105.103 C 95.434 104.861,99.026 101.487,103.103 97.608 C 107.181 93.728,110.575 90.513,110.646 90.464 C 110.717 90.414,109.498 88.976,107.936 87.267 L 105.097 84.161 103.400 85.591 L 101.704 87.022 103.168 88.514 L 104.633 90.006 101.885 92.786 C 97.900 96.818,98.212 96.768,95.443 93.812 C 92.590 90.766,92.554 91.278,95.839 88.188 L 98.574 85.615 97.068 84.137 L 95.561 82.658 92.694 85.325 L 89.828 87.991 87.390 85.326 L 84.952 82.661 88.025 79.693 C 91.779 76.067,91.533 76.154,93.058 77.908 L 94.310 79.348 96.034 77.804 L 97.759 76.260 94.835 73.302 C 93.227 71.676,91.828 70.345,91.726 70.345 C 91.623 70.345,88.012 73.696,83.701 77.792 M323.103 89.689 C 313.333 91.588,306.663 101.712,310.307 109.113 C 315.638 119.941,329.092 119.392,335.725 108.075 C 340.596 99.762,332.437 87.876,323.103 89.689 M329.049 95.708 C 333.351 98.542,333.459 103.488,329.308 107.549 C 323.334 113.393,317.680 113.523,314.803 107.882 C 311.476 101.362,322.862 91.632,329.049 95.708 M56.670 110.946 C 55.227 113.176,53.747 115.424,53.382 115.943 L 52.719 116.886 54.358 117.926 C 56.395 119.218,56.337 119.222,57.254 117.738 C 58.192 116.221,57.437 115.891,66.535 121.794 C 74.572 127.009,74.495 126.937,73.448 128.276 C 72.469 129.528,72.577 129.829,74.413 130.959 L 76.068 131.977 81.870 123.043 C 85.061 118.129,87.614 114.054,87.543 113.988 C 87.070 113.549,80.244 108.957,80.183 109.037 C 77.926 112.017,77.925 112.174,80.146 113.648 L 82.016 114.890 79.587 118.566 C 78.251 120.587,77.035 122.207,76.885 122.165 C 76.584 122.081,61.707 112.478,61.298 112.103 C 61.158 111.976,61.429 111.303,61.901 110.609 C 62.987 109.010,63.051 109.205,61.026 107.959 L 59.294 106.893 56.670 110.946 M130.000 120.256 C 130.000 120.587,133.762 124.621,138.359 129.222 L 146.719 137.586 138.359 145.951 L 130.000 154.316 130.000 167.595 L 130.000 180.875 133.449 184.311 L 136.897 187.746 133.419 191.236 L 129.941 194.726 130.057 207.705 L 130.172 220.685 138.709 229.226 L 147.245 237.767 143.479 241.521 L 139.714 245.274 141.460 248.068 C 143.461 251.270,147.403 256.844,148.922 258.621 L 149.955 259.828 154.804 255.005 L 159.654 250.183 163.276 253.793 L 166.899 257.404 161.678 262.633 L 156.456 267.862 162.605 274.119 L 168.754 280.375 174.034 275.104 L 179.313 269.833 193.760 284.277 C 202.852 293.367,208.379 298.649,208.672 298.527 C 209.124 298.339,218.181 291.312,220.889 289.049 L 222.233 287.925 206.976 272.666 L 191.719 257.406 195.262 253.876 C 197.211 251.934,198.957 250.345,199.142 250.345 C 199.328 250.345,206.386 257.243,214.826 265.675 L 230.172 281.005 234.672 276.742 C 237.147 274.396,239.925 271.596,240.846 270.518 L 242.521 268.558 227.038 253.073 L 211.556 237.587 220.345 228.793 L 229.134 219.999 243.626 234.488 L 258.118 248.977 259.904 245.954 C 261.772 242.791,265.129 235.931,265.902 233.696 L 266.353 232.392 253.956 219.991 L 241.559 207.590 245.343 203.795 C 247.424 201.708,249.285 200.000,249.479 200.000 C 249.673 200.000,254.176 204.347,259.485 209.661 L 269.138 219.322 269.357 217.678 C 269.478 216.774,269.499 211.224,269.404 205.345 L 269.231 194.655 265.570 190.948 L 261.908 187.241 265.609 183.529 L 269.310 179.816 269.310 167.410 L 269.310 155.004 259.393 164.918 L 249.475 174.831 245.774 171.119 L 242.073 167.407 255.692 153.791 L 269.310 140.176 269.310 129.915 L 269.310 119.655 267.326 119.655 L 265.342 119.655 247.587 137.413 L 229.831 155.171 220.950 146.295 L 212.069 137.419 220.946 128.537 L 229.823 119.655 217.419 119.655 L 205.015 119.655 202.335 122.319 L 199.655 124.984 196.975 122.319 L 194.295 119.655 179.467 119.655 L 164.639 119.655 161.896 122.414 L 159.153 125.173 156.380 122.414 L 153.606 119.655 141.803 119.655 C 130.811 119.655,130.000 119.696,130.000 120.256 M349.397 120.905 C 348.401 121.348,347.586 121.788,347.586 121.883 C 347.586 121.978,347.838 122.685,348.147 123.456 C 348.830 125.164,349.964 124.392,339.905 129.069 L 331.362 133.042 330.639 131.607 C 330.241 130.818,329.872 130.123,329.819 130.063 C 329.714 129.943,326.207 131.671,326.207 131.843 C 326.207 132.111,334.887 150.542,335.125 150.780 C 335.273 150.928,337.195 150.251,339.396 149.276 L 343.399 147.502 342.654 145.906 C 342.245 145.029,341.869 144.246,341.818 144.167 C 341.767 144.089,340.768 144.438,339.598 144.943 C 338.427 145.447,337.441 145.822,337.406 145.775 C 336.995 145.226,333.810 137.799,333.933 137.676 C 334.094 137.515,345.545 132.142,349.235 130.496 L 351.057 129.683 351.793 131.198 L 352.529 132.712 354.282 131.832 C 355.246 131.348,356.077 130.915,356.128 130.871 C 356.211 130.799,351.440 120.259,351.273 120.144 C 351.237 120.119,350.392 120.462,349.397 120.905 M183.368 133.540 L 187.242 137.425 183.276 141.379 L 179.310 145.334 175.345 141.379 L 171.379 137.425 175.253 133.540 C 177.383 131.403,179.209 129.655,179.310 129.655 C 179.411 129.655,181.237 131.403,183.368 133.540 M66.676 140.773 C 66.264 142.208,66.315 142.201,52.320 142.775 C 45.432 143.057,41.258 143.362,41.080 143.595 C 40.749 144.028,37.516 153.503,37.661 153.617 C 38.058 153.927,41.193 154.784,41.352 154.626 C 41.462 154.516,41.793 153.809,42.088 153.055 L 42.624 151.684 50.578 158.339 L 58.532 164.993 58.055 166.343 C 57.793 167.086,57.619 167.726,57.669 167.766 C 57.926 167.972,61.439 169.018,61.527 168.914 C 61.684 168.729,64.947 158.815,64.910 158.634 C 64.892 158.547,64.362 158.297,63.732 158.080 C 60.943 157.118,61.108 157.089,60.651 158.613 C 60.167 160.228,60.170 160.228,58.118 158.621 C 56.234 157.145,56.234 157.678,58.123 152.011 L 59.694 147.296 62.107 147.183 C 64.381 147.075,64.508 147.109,64.321 147.759 C 63.632 150.143,63.646 150.192,65.178 150.651 C 65.973 150.889,66.824 151.161,67.069 151.254 C 67.379 151.374,68.009 149.933,69.152 146.488 C 70.054 143.773,70.856 141.376,70.934 141.160 C 71.065 140.804,68.370 139.655,67.402 139.655 C 67.179 139.655,66.852 140.158,66.676 140.773 M55.087 148.017 C 55.000 148.254,54.505 149.728,53.988 151.293 C 52.855 154.718,53.461 154.739,49.120 151.121 C 44.878 147.584,44.825 147.674,51.158 147.621 C 54.294 147.594,55.209 147.687,55.087 148.017 M163.021 153.883 L 166.894 157.767 158.104 166.552 L 149.313 175.337 145.345 171.379 L 141.376 167.422 150.082 158.711 C 154.870 153.920,158.869 150.000,158.969 150.000 C 159.068 150.000,160.892 151.747,163.021 153.883 M208.619 158.792 L 217.406 167.583 213.448 171.552 L 209.491 175.520 200.609 166.643 L 191.727 157.766 195.599 153.883 C 197.729 151.747,199.553 150.000,199.652 150.000 C 199.751 150.000,203.787 153.956,208.619 158.792 M363.324 156.294 L 361.647 156.640 361.866 158.294 C 362.052 159.693,361.991 159.977,361.474 160.135 C 360.254 160.508,344.333 163.793,343.747 163.793 C 343.297 163.793,343.086 163.396,342.909 162.215 C 342.701 160.829,342.583 160.658,341.940 160.812 C 341.537 160.908,340.625 161.093,339.914 161.222 C 339.203 161.351,338.621 161.619,338.621 161.818 C 338.621 162.261,342.806 182.201,342.928 182.341 C 343.005 182.429,351.417 180.997,351.638 180.859 C 352.066 180.590,350.852 176.907,350.382 177.049 C 349.268 177.385,346.458 177.952,346.376 177.857 C 346.244 177.702,344.494 169.184,344.579 169.107 C 344.668 169.027,362.886 165.172,363.174 165.172 C 363.282 165.172,363.475 165.871,363.603 166.724 C 363.731 167.578,363.973 168.276,364.142 168.276 C 365.245 168.276,367.929 167.459,367.918 167.127 C 367.875 165.843,365.593 156.067,365.324 156.013 C 365.146 155.977,364.246 156.104,363.324 156.294 M188.276 179.138 L 197.064 187.931 188.276 196.724 L 179.488 205.517 170.606 196.640 L 161.724 187.764 170.428 179.054 C 175.216 174.264,179.213 170.345,179.310 170.345 C 179.408 170.345,183.442 174.302,188.276 179.138 M38.650 177.263 C 29.854 179.033,28.564 194.225,36.828 198.723 C 42.039 201.559,50.545 201.536,54.805 198.674 C 62.452 193.539,60.202 177.960,51.810 177.934 L 50.690 177.931 50.632 179.828 C 50.601 180.871,50.562 181.971,50.546 182.273 C 50.528 182.613,51.020 182.995,51.833 183.275 C 56.262 184.798,56.264 191.769,51.835 194.365 C 48.688 196.209,41.684 195.770,38.484 193.528 C 33.941 190.344,35.482 182.560,40.704 182.314 C 42.623 182.223,42.747 182.047,42.753 179.397 C 42.758 177.574,42.666 177.241,42.155 177.237 C 41.823 177.234,41.241 177.170,40.862 177.095 C 40.483 177.019,39.487 177.095,38.650 177.263 M233.449 183.621 L 237.057 187.242 233.101 191.209 L 229.146 195.176 225.548 191.579 L 221.951 187.982 225.673 183.991 C 227.721 181.796,229.496 180.000,229.618 180.000 C 229.740 180.000,231.464 181.629,233.449 183.621 M343.754 197.155 C 343.732 199.194,343.615 204.139,343.495 208.145 L 343.276 215.427 346.346 215.645 C 348.035 215.764,349.936 215.862,350.570 215.862 L 351.724 215.862 351.724 213.621 L 351.724 211.379 349.741 211.379 L 347.759 211.380 347.879 206.810 C 348.023 201.357,347.435 202.024,351.861 202.295 L 355.560 202.521 355.320 206.433 L 355.079 210.345 357.367 210.345 L 359.655 210.345 359.655 206.329 L 359.655 202.314 361.983 202.534 C 363.263 202.655,364.897 202.755,365.613 202.756 L 366.917 202.759 366.820 207.328 L 366.724 211.897 364.655 211.897 L 362.586 211.897 362.484 214.052 L 362.381 216.207 365.415 216.211 C 367.083 216.213,369.009 216.307,369.695 216.421 L 370.942 216.627 371.166 208.055 C 371.289 203.340,371.425 198.319,371.467 196.897 L 371.544 194.310 369.393 194.208 L 367.241 194.105 367.241 195.802 L 367.241 197.499 362.500 197.363 C 359.892 197.288,355.547 197.136,352.845 197.026 L 347.931 196.825 347.931 195.137 L 347.931 193.448 345.862 193.448 L 343.793 193.448 343.754 197.155 M158.276 209.138 L 167.064 217.932 163.359 221.637 L 159.654 225.342 150.779 216.467 L 141.904 207.592 145.515 203.968 C 147.501 201.975,149.207 200.345,149.307 200.345 C 149.406 200.345,153.443 204.302,158.276 209.138 M207.931 216.379 L 199.142 225.173 195.522 221.552 L 191.901 217.932 200.690 209.138 L 209.478 200.344 213.099 203.965 L 216.720 207.586 207.931 216.379 M56.379 211.260 C 53.993 211.765,54.139 211.627,54.343 213.194 L 54.533 214.655 43.789 221.193 C 33.671 227.350,33.056 227.781,33.221 228.606 C 33.317 229.088,33.744 231.478,34.170 233.916 L 34.944 238.349 36.677 238.119 C 38.983 237.813,39.034 237.762,38.770 236.004 C 38.488 234.118,37.445 234.080,49.144 236.375 C 54.451 237.416,58.818 238.270,58.849 238.272 C 58.880 238.274,59.012 238.909,59.143 239.683 L 59.380 241.090 61.156 240.855 C 63.595 240.531,63.543 240.766,62.493 234.871 L 61.552 229.589 59.847 229.815 C 57.556 230.119,57.485 230.193,57.754 231.985 C 57.946 233.269,57.899 233.510,57.486 233.351 C 57.210 233.246,56.292 233.055,55.446 232.928 C 54.600 232.801,53.741 232.594,53.537 232.469 C 53.226 232.276,51.240 222.413,51.473 222.218 C 51.516 222.182,52.440 221.588,53.527 220.898 C 55.705 219.515,55.547 219.449,55.948 221.897 C 56.066 222.615,56.751 222.691,59.166 222.252 L 60.228 222.060 59.433 217.668 C 58.996 215.252,58.550 212.772,58.441 212.155 C 58.243 211.024,57.999 210.918,56.379 211.260 M48.231 228.050 C 48.577 229.876,48.808 231.422,48.744 231.486 C 48.573 231.657,39.313 229.858,39.312 229.653 C 39.310 229.455,47.363 224.547,47.508 224.658 C 47.560 224.697,47.886 226.223,48.231 228.050 M183.017 241.289 L 179.315 244.992 175.691 241.381 L 172.068 237.770 175.772 234.056 L 179.475 230.341 183.097 233.964 L 186.720 237.586 183.017 241.289 M345.845 230.791 C 336.538 233.439,334.333 248.455,342.734 251.983 C 344.182 252.591,348.391 253.792,348.543 253.641 C 348.651 253.533,351.379 243.899,351.379 243.626 C 351.379 243.422,347.847 242.383,347.689 242.541 C 347.620 242.610,347.264 243.716,346.897 245.000 C 346.110 247.751,346.127 247.728,345.072 247.463 C 340.705 246.367,341.003 238.855,345.504 236.559 C 348.772 234.891,355.911 236.313,359.083 239.262 C 363.227 243.116,360.719 250.172,355.204 250.172 L 353.339 250.172 352.713 252.394 C 351.976 255.006,351.833 254.742,354.261 255.252 C 363.796 257.251,370.000 241.617,362.307 234.978 C 358.357 231.571,350.305 229.523,345.845 230.791 M64.406 250.830 C 62.587 251.908,62.584 251.914,63.276 253.448 C 63.620 254.211,63.838 254.883,63.761 254.942 C 63.385 255.228,47.506 264.483,47.390 264.483 C 47.316 264.483,46.939 263.862,46.552 263.103 C 45.719 261.471,45.920 261.509,43.785 262.590 L 42.076 263.456 44.221 267.763 C 46.138 271.610,46.462 272.069,47.257 272.069 C 48.808 272.069,62.518 270.687,64.135 270.368 C 66.489 269.903,66.472 270.232,64.018 272.715 C 62.775 273.972,59.830 277.250,57.474 280.000 L 53.190 285.000 55.392 289.400 L 57.595 293.800 59.401 292.893 C 60.394 292.394,61.265 291.934,61.336 291.870 C 61.407 291.806,61.135 291.195,60.732 290.512 C 59.724 288.803,59.698 288.844,62.500 287.658 C 63.875 287.076,67.838 285.355,71.306 283.834 L 77.611 281.068 78.346 282.580 L 79.080 284.091 80.833 283.211 C 81.797 282.727,82.642 282.281,82.710 282.219 C 82.812 282.128,78.093 272.889,77.721 272.454 C 77.548 272.251,75.789 273.052,74.876 273.749 C 74.098 274.343,74.086 274.417,74.599 275.409 L 75.136 276.447 68.344 279.391 C 64.608 281.011,61.497 282.285,61.430 282.224 C 61.362 282.162,64.053 279.076,67.409 275.364 L 73.511 268.616 72.603 267.067 C 71.514 265.209,72.317 265.261,62.235 266.399 C 57.941 266.884,54.288 267.233,54.118 267.175 C 53.815 267.071,65.827 259.655,66.297 259.655 C 66.427 259.655,66.773 260.118,67.066 260.683 L 67.597 261.711 69.481 260.787 L 71.365 259.863 68.856 255.041 C 66.057 249.662,66.180 249.778,64.406 250.830 M326.195 269.224 C 323.656 273.728,321.230 278.039,320.802 278.804 L 320.026 280.193 323.658 282.371 C 325.656 283.569,327.329 284.495,327.377 284.430 C 327.817 283.824,329.310 281.021,329.310 280.801 C 329.310 280.645,328.543 280.087,327.606 279.560 L 325.901 278.603 327.988 274.905 C 329.135 272.871,330.184 271.088,330.318 270.943 C 330.669 270.563,336.746 274.073,336.610 274.577 C 336.547 274.810,335.723 276.373,334.777 278.052 C 333.831 279.730,333.107 281.143,333.167 281.191 C 333.546 281.494,336.478 283.103,336.653 283.103 C 336.769 283.103,337.687 281.629,338.691 279.828 C 339.696 278.026,340.641 276.552,340.792 276.552 C 341.006 276.552,346.292 279.446,346.851 279.870 C 346.948 279.944,343.012 287.268,342.542 287.887 C 342.489 287.957,341.733 287.597,340.862 287.087 C 338.917 285.947,338.838 285.973,337.610 288.123 L 336.617 289.861 340.275 291.831 C 343.177 293.395,344.015 293.712,344.333 293.366 C 344.779 292.883,354.828 275.015,354.828 274.707 C 354.828 274.456,351.939 272.759,351.514 272.759 C 351.336 272.759,350.899 273.302,350.541 273.966 C 350.184 274.629,349.747 275.172,349.570 275.172 C 348.966 275.172,333.103 266.115,333.103 265.770 C 333.103 265.581,333.421 264.912,333.810 264.284 L 334.516 263.141 333.551 262.548 C 331.576 261.335,331.056 261.034,330.934 261.034 C 330.866 261.034,328.733 264.720,326.195 269.224 M130.587 336.033 C 130.005 337.255,130.006 337.261,130.863 337.587 C 132.033 338.031,132.048 337.971,129.263 343.974 L 126.801 349.279 125.869 348.797 C 124.955 348.324,123.219 350.294,124.080 350.826 C 124.775 351.256,136.322 356.550,136.391 356.470 C 136.570 356.263,138.621 352.075,138.621 351.915 C 138.621 351.820,138.128 351.487,137.525 351.175 C 136.372 350.579,135.517 351.061,135.517 352.307 C 135.517 353.057,131.447 351.723,130.076 350.523 C 130.023 350.477,130.388 349.496,130.888 348.343 L 131.797 346.248 133.743 347.121 C 134.814 347.602,135.853 348.063,136.052 348.146 C 136.251 348.229,136.670 347.760,136.983 347.104 L 137.552 345.911 135.328 344.870 C 134.104 344.298,133.103 343.738,133.103 343.627 C 133.103 343.450,134.789 339.970,134.987 339.739 C 135.029 339.690,136.253 340.199,137.707 340.871 L 140.350 342.092 139.830 343.098 C 139.544 343.651,139.310 344.185,139.310 344.284 C 139.310 344.476,141.202 345.517,141.549 345.517 C 141.927 345.517,143.818 340.922,143.546 340.664 C 143.341 340.471,133.648 335.869,131.534 334.962 C 131.335 334.877,130.909 335.359,130.587 336.033 M268.190 336.057 C 267.289 336.526,266.552 337.086,266.552 337.302 C 266.552 337.518,266.141 340.476,265.640 343.876 C 264.783 349.683,264.761 350.129,265.283 351.222 L 265.838 352.386 269.384 350.681 C 273.661 348.624,273.272 348.645,274.173 350.431 C 274.580 351.237,274.969 351.960,275.039 352.037 C 275.247 352.267,277.931 350.955,277.931 350.624 C 277.931 350.455,277.603 349.675,277.203 348.889 C 276.476 347.465,276.784 346.552,277.991 346.552 C 278.142 346.552,278.006 346.009,277.689 345.345 C 277.069 344.045,276.861 343.948,275.847 344.491 C 275.249 344.811,274.970 344.388,272.886 340.008 C 270.365 334.710,270.523 334.842,268.190 336.057 M272.052 346.125 C 272.069 346.572,268.306 348.421,268.000 348.115 C 267.833 347.948,268.497 342.327,268.874 340.716 C 269.067 339.894,272.003 344.892,272.052 346.125 M249.867 343.800 C 242.921 346.234,243.633 345.612,244.514 348.482 C 245.394 351.348,245.226 351.153,246.563 350.860 C 247.690 350.612,247.791 350.088,247.071 348.228 C 246.886 347.750,253.008 345.165,253.276 345.607 C 253.304 345.653,253.106 349.153,252.837 353.386 C 252.567 357.619,252.415 361.150,252.497 361.233 C 252.715 361.450,254.933 360.667,255.382 360.213 C 256.305 359.283,256.691 341.573,255.784 341.742 C 255.732 341.751,253.069 342.678,249.867 343.800 M154.318 345.249 C 148.946 346.385,149.250 351.729,154.893 355.375 C 158.042 357.410,158.718 358.779,157.097 359.841 C 155.273 361.036,151.381 359.000,151.858 357.100 C 152.041 356.369,151.901 356.246,150.472 355.887 C 148.542 355.401,148.448 355.480,148.448 357.596 C 148.448 362.940,158.277 365.109,160.794 360.320 C 162.166 357.710,161.060 355.639,156.831 352.903 C 153.753 350.912,153.200 349.903,154.483 348.621 C 156.072 347.031,159.529 348.304,159.719 350.549 C 159.858 352.179,162.521 353.342,162.898 351.938 C 164.002 347.824,159.337 344.188,154.318 345.249 M231.492 348.636 C 226.100 349.702,224.256 354.779,228.414 357.112 C 229.690 357.828,229.715 357.875,229.014 358.250 C 225.019 360.388,227.724 366.251,232.727 366.298 C 239.961 366.366,243.804 359.359,237.792 357.063 L 236.215 356.461 237.245 355.288 C 239.751 352.433,237.064 347.790,233.209 348.314 C 233.056 348.334,232.283 348.479,231.492 348.636 M172.291 349.824 C 172.179 350.115,171.984 351.360,171.858 352.591 L 171.629 354.828 172.862 354.828 C 174.000 354.828,174.102 354.742,174.202 353.707 L 174.310 352.586 176.196 352.690 C 177.233 352.747,178.127 352.839,178.182 352.895 C 178.237 352.950,177.941 355.658,177.523 358.911 L 176.764 364.828 175.623 364.828 C 174.668 364.828,173.670 367.124,174.569 367.254 C 181.930 368.313,182.053 368.300,182.064 366.466 C 182.068 365.633,181.938 365.517,180.996 365.517 C 179.976 365.517,179.933 365.463,180.118 364.397 C 180.225 363.780,180.578 361.065,180.903 358.362 L 181.493 353.448 182.428 353.448 C 185.003 353.448,185.529 353.772,185.298 355.215 L 185.084 356.552 186.320 356.552 C 187.449 356.552,187.570 356.455,187.725 355.431 C 187.985 353.725,188.220 351.379,188.132 351.379 C 187.856 351.379,174.450 349.630,173.574 349.480 C 172.797 349.346,172.437 349.443,172.291 349.824 M213.966 351.386 C 213.024 351.518,211.793 352.174,210.086 353.453 C 207.279 355.557,207.370 355.403,208.282 356.498 L 208.956 357.306 210.565 356.406 C 212.592 355.274,212.417 354.936,212.911 360.929 C 213.409 366.954,213.672 366.158,211.093 366.428 C 208.911 366.656,208.321 367.422,209.229 368.845 C 209.426 369.154,219.291 368.681,220.603 368.301 C 220.651 368.287,220.690 367.733,220.690 367.069 L 220.690 365.862 218.621 365.862 C 217.236 365.862,216.552 365.725,216.552 365.446 C 216.552 364.702,215.492 351.557,215.418 351.372 C 215.378 351.273,214.724 351.280,213.966 351.386 M233.902 351.431 C 235.438 352.239,235.614 353.728,234.326 355.016 C 232.761 356.581,229.310 355.640,229.310 353.649 C 229.310 351.932,232.201 350.535,233.902 351.431 M236.121 358.962 C 238.974 360.701,235.860 364.215,232.264 363.312 C 231.115 363.024,230.214 361.644,230.529 360.653 C 231.230 358.445,233.933 357.628,236.121 358.962 " stroke="none" fill="#0d446c" fill-rule="evenodd"></path><path id="path1" d="M190.517 10.352 C 79.985 16.289,-2.070 114.257,11.746 223.793 C 24.891 328.008,121.580 402.227,225.517 387.887 C 337.347 372.458,411.152 263.742,384.131 154.245 C 362.494 66.562,280.369 5.527,190.517 10.352 M204.567 34.628 C 204.868 39.440,205.091 38.996,202.261 39.223 L 200.000 39.405 200.000 37.481 C 200.000 35.041,200.060 35.067,195.158 35.360 L 191.034 35.606 191.040 38.579 C 191.047 42.637,190.919 42.526,195.392 42.371 L 199.138 42.241 199.240 44.569 L 199.342 46.897 195.792 46.902 C 191.197 46.909,191.384 46.734,191.625 50.782 L 191.825 54.138 193.619 54.138 C 194.606 54.138,196.613 54.037,198.079 53.913 L 200.745 53.687 200.511 51.671 L 200.277 49.655 201.949 49.650 C 202.868 49.648,203.946 49.559,204.343 49.452 C 204.983 49.280,205.973 57.590,205.383 58.181 C 205.256 58.307,183.358 59.341,183.267 59.225 C 183.230 59.177,183.103 58.168,182.985 56.983 L 182.769 54.828 184.057 54.822 C 186.312 54.813,186.237 55.243,185.790 44.921 L 185.386 35.565 183.777 35.756 L 182.168 35.946 181.925 33.799 C 181.791 32.618,181.777 31.556,181.894 31.439 C 182.159 31.175,197.403 30.422,201.379 30.477 L 204.310 30.517 204.567 34.628 M239.654 35.397 C 247.055 38.715,246.334 49.213,238.546 51.518 C 238.014 51.676,238.084 52.070,239.236 55.415 L 240.517 59.137 242.176 59.437 C 243.281 59.637,243.780 59.882,243.670 60.169 C 243.578 60.407,243.396 61.322,243.264 62.202 C 242.954 64.268,243.022 64.246,239.329 63.488 C 235.464 62.696,236.020 63.375,234.130 57.142 L 232.539 51.897 230.385 51.431 C 227.832 50.879,227.974 50.780,227.387 53.516 C 226.739 56.538,226.711 56.461,228.551 56.715 C 231.085 57.063,231.308 57.690,230.173 61.260 C 230.065 61.600,224.096 60.555,217.989 59.126 C 217.253 58.954,217.206 58.817,217.429 57.486 C 217.901 54.675,218.048 54.505,219.680 54.872 C 221.522 55.285,221.156 56.176,223.119 46.506 C 224.058 41.885,224.903 37.768,224.998 37.358 C 225.148 36.708,224.982 36.581,223.706 36.370 C 221.566 36.016,221.652 36.333,222.585 32.199 C 222.784 31.314,236.119 33.812,239.654 35.397 M165.883 38.017 C 167.345 42.798,167.372 42.419,165.517 42.974 C 163.241 43.654,163.173 43.621,162.564 41.527 C 162.117 39.990,161.891 39.650,161.434 39.825 C 161.119 39.946,159.953 40.297,158.843 40.606 C 156.225 41.334,156.248 41.129,158.106 47.289 C 162.015 60.249,161.698 59.399,162.525 59.163 C 165.049 58.443,164.981 58.413,165.648 60.528 C 165.988 61.608,166.137 62.610,165.978 62.755 C 165.509 63.183,154.780 66.274,154.553 66.047 C 154.011 65.505,153.180 62.019,153.565 61.900 C 153.785 61.832,154.527 61.604,155.214 61.394 L 156.462 61.011 153.782 52.206 C 150.620 41.815,151.347 42.895,148.141 43.827 C 145.277 44.659,145.304 44.618,146.019 46.974 C 146.291 47.870,146.406 48.661,146.274 48.731 C 145.520 49.133,142.701 49.713,142.496 49.508 C 142.197 49.209,139.997 41.612,140.161 41.448 C 140.322 41.287,163.871 34.185,164.331 34.159 C 164.533 34.147,165.231 35.884,165.883 38.017 M230.585 38.190 C 230.298 38.699,228.857 46.213,229.015 46.371 C 229.261 46.617,234.066 47.586,235.040 47.586 C 237.311 47.586,238.966 45.588,238.966 42.846 C 238.966 40.416,237.588 39.319,233.439 38.446 C 230.575 37.844,230.770 37.861,230.585 38.190 M125.245 52.738 C 126.258 53.433,128.276 56.026,128.276 56.634 C 128.276 56.821,124.223 59.310,123.918 59.310 C 123.824 59.310,123.235 58.767,122.609 58.103 C 119.856 55.185,113.165 59.210,114.969 62.700 C 115.873 64.448,117.709 64.584,122.759 63.276 C 129.980 61.406,133.577 62.643,135.364 67.610 C 138.442 76.168,122.327 84.854,117.181 77.411 C 115.895 75.551,115.903 75.530,118.497 74.013 L 120.774 72.681 121.508 73.571 C 123.761 76.304,130.345 73.982,130.345 70.455 C 130.345 67.936,128.034 67.448,122.478 68.794 C 114.173 70.806,109.292 68.400,109.237 62.268 C 109.176 55.454,119.895 49.073,125.245 52.738 M301.641 63.442 C 309.158 66.950,311.708 74.400,307.297 79.968 L 306.640 80.798 304.541 79.183 L 302.443 77.568 303.290 75.974 C 305.894 71.077,300.273 65.827,295.000 68.230 C 291.592 69.783,287.586 75.536,287.586 78.878 C 287.586 84.094,293.459 87.530,296.897 84.325 L 297.759 83.521 299.927 85.181 L 302.096 86.841 300.995 88.096 C 294.631 95.344,280.043 86.514,282.083 76.648 C 284.207 66.377,293.901 59.831,301.641 63.442 M94.989 73.093 C 96.682 74.794,97.998 76.241,97.913 76.310 C 97.828 76.378,97.015 77.107,96.106 77.930 L 94.453 79.425 93.003 78.019 L 91.552 76.613 88.294 79.657 L 85.037 82.701 87.506 85.230 L 89.975 87.759 92.748 85.006 L 95.521 82.254 97.151 83.884 L 98.781 85.514 95.941 88.368 L 93.102 91.223 95.603 93.697 L 98.103 96.171 101.243 93.117 L 104.382 90.062 102.972 88.651 L 101.561 87.240 103.301 85.500 L 105.041 83.760 107.866 86.928 C 109.419 88.670,110.690 90.206,110.690 90.342 C 110.690 90.540,102.531 98.439,96.115 104.451 L 94.816 105.669 93.221 104.074 L 91.626 102.479 92.897 101.363 L 94.167 100.247 91.308 97.275 C 89.735 95.641,86.759 92.549,84.695 90.404 L 80.942 86.506 79.779 87.633 L 78.616 88.760 77.063 87.236 C 76.209 86.397,75.555 85.576,75.610 85.410 C 75.726 85.063,91.460 70.038,91.731 70.015 C 91.830 70.007,93.296 71.392,94.989 73.093 M329.532 90.363 C 335.981 93.465,339.168 101.443,336.293 107.289 C 334.115 111.718,328.029 116.355,323.267 117.214 C 314.547 118.787,306.184 107.875,309.946 99.835 C 313.527 92.183,323.394 87.411,329.532 90.363 M323.001 95.325 C 318.316 96.996,313.795 102.256,314.233 105.525 C 315.320 113.625,325.539 113.622,330.901 105.520 C 334.633 99.881,329.348 93.061,323.001 95.325 M61.381 108.041 L 63.080 109.185 62.230 110.436 C 61.762 111.124,61.379 111.758,61.379 111.844 C 61.379 112.242,77.002 122.098,77.229 121.842 C 77.371 121.683,78.230 120.388,79.137 118.966 C 80.045 117.543,81.008 116.042,81.279 115.629 C 81.746 114.915,81.674 114.817,79.821 113.631 C 77.648 112.242,77.682 112.676,79.522 109.828 C 80.261 108.685,80.050 108.611,84.239 111.494 L 87.912 114.023 82.238 122.765 C 79.117 127.572,76.429 131.640,76.264 131.805 C 75.977 132.092,72.414 130.130,72.414 129.684 C 72.414 129.566,72.801 128.901,73.274 128.204 L 74.135 126.938 71.119 124.974 C 69.460 123.894,65.995 121.635,63.417 119.953 C 58.048 116.451,58.229 116.505,57.241 118.103 C 56.341 119.560,56.571 119.553,54.483 118.190 C 52.434 116.852,52.322 117.310,56.118 111.472 C 59.488 106.289,59.128 106.523,61.381 108.041 M156.552 122.242 L 159.154 124.829 161.724 122.242 L 164.293 119.655 179.294 119.655 L 194.295 119.655 196.897 122.242 L 199.499 124.829 202.068 122.242 L 204.638 119.655 217.403 119.655 L 230.167 119.655 221.206 128.622 L 212.245 137.588 220.950 146.293 L 229.655 154.998 247.329 137.327 L 265.002 119.655 267.105 119.655 L 269.207 119.655 269.407 129.914 L 269.606 140.172 255.928 153.877 L 242.249 167.582 245.862 171.207 L 249.474 174.832 259.308 165.002 C 264.717 159.596,269.258 155.172,269.399 155.172 C 269.540 155.172,269.655 160.717,269.655 167.495 L 269.655 179.817 265.862 183.621 L 262.068 187.425 265.862 191.207 L 269.655 194.988 269.655 207.092 C 269.655 213.749,269.546 219.305,269.412 219.439 C 269.278 219.572,264.738 215.252,259.322 209.839 L 249.475 199.996 245.689 203.793 L 241.904 207.590 254.260 219.950 L 266.616 232.309 265.672 234.689 C 263.882 239.204,259.078 248.298,258.193 248.844 C 258.005 248.960,251.390 242.595,243.493 234.700 L 229.134 220.344 220.430 229.053 L 211.725 237.763 227.241 253.275 L 242.757 268.788 236.640 274.911 C 233.277 278.279,230.367 281.034,230.175 281.034 C 229.982 281.034,222.922 274.130,214.485 265.692 L 199.145 250.349 195.605 253.878 L 192.064 257.406 207.310 272.655 C 215.695 281.042,222.485 287.962,222.399 288.033 C 217.279 292.225,211.589 296.684,209.361 298.250 L 208.204 299.063 193.759 284.621 L 179.313 270.178 174.221 275.262 C 171.421 278.057,168.994 280.345,168.829 280.345 C 168.430 280.345,162.716 274.744,159.219 270.925 L 156.435 267.884 161.574 262.736 L 166.714 257.588 163.103 253.966 L 159.493 250.343 154.618 255.209 L 149.744 260.075 147.676 257.360 C 145.267 254.195,139.655 245.758,139.655 245.301 C 139.655 245.128,141.285 243.363,143.278 241.378 L 146.900 237.767 138.616 229.478 L 130.332 221.189 129.996 218.267 C 129.812 216.660,129.659 210.692,129.658 205.006 L 129.655 194.667 133.104 191.207 L 136.552 187.746 133.104 184.311 L 129.655 180.875 129.655 167.595 L 129.655 154.316 138.015 145.951 L 146.374 137.586 138.187 129.394 C 132.371 123.574,130.000 120.978,130.000 120.428 L 130.000 119.655 141.975 119.655 L 153.950 119.655 156.552 122.242 M353.984 125.538 L 356.461 130.862 354.696 131.794 C 352.523 132.941,352.195 132.964,351.949 131.983 C 351.358 129.628,351.574 129.586,342.364 133.857 L 333.905 137.779 335.641 141.562 C 336.595 143.643,337.419 145.406,337.472 145.480 C 337.526 145.554,338.525 145.200,339.693 144.693 C 340.862 144.187,341.842 143.816,341.871 143.869 C 342.413 144.861,343.528 147.613,343.421 147.696 C 343.312 147.780,336.900 150.582,335.156 151.307 C 335.024 151.362,334.834 151.130,334.736 150.790 C 334.637 150.450,332.611 146.018,330.233 140.941 L 325.911 131.710 327.940 130.685 L 329.970 129.660 330.655 131.209 C 331.487 133.091,330.387 133.320,338.293 129.621 C 341.982 127.895,345.813 126.120,346.807 125.676 L 348.614 124.869 347.931 123.275 L 347.248 121.682 349.055 120.862 C 351.458 119.771,351.174 119.502,353.984 125.538 M175.425 133.713 L 171.724 137.425 175.517 141.207 L 179.310 144.988 183.104 141.207 L 186.897 137.425 183.196 133.713 C 181.160 131.671,179.412 130.000,179.310 130.000 C 179.209 130.000,177.461 131.671,175.425 133.713 M69.008 139.833 C 69.838 140.121,70.703 140.423,70.930 140.505 C 71.268 140.627,69.519 146.604,67.785 151.252 C 67.496 152.025,63.386 150.284,63.608 149.483 C 64.273 147.078,64.339 147.241,62.710 147.246 C 59.934 147.255,59.970 147.214,58.187 152.335 L 56.546 157.045 58.014 158.335 C 59.803 159.908,60.224 159.956,60.516 158.625 C 60.641 158.058,60.889 157.503,61.069 157.393 C 61.338 157.226,64.716 158.126,65.122 158.473 C 65.687 158.956,61.588 169.314,60.915 169.101 C 57.545 168.038,57.546 168.039,57.972 165.634 C 58.083 165.003,43.477 152.069,42.653 152.069 C 42.571 152.069,42.306 152.775,42.064 153.638 C 41.822 154.502,41.453 155.145,41.243 155.068 C 41.034 154.991,40.062 154.665,39.084 154.343 L 37.305 153.759 39.045 148.517 C 40.003 145.635,40.804 143.249,40.827 143.215 C 40.888 143.125,62.837 142.069,64.639 142.069 C 66.137 142.069,66.190 142.031,66.592 140.690 C 67.064 139.114,67.000 139.137,69.008 139.833 M48.709 147.843 L 45.522 147.957 47.502 149.559 C 48.592 150.440,50.221 151.778,51.123 152.533 C 52.024 153.287,52.812 153.840,52.873 153.762 C 52.934 153.684,53.470 152.263,54.065 150.603 L 55.147 147.586 53.522 147.658 C 52.628 147.697,50.462 147.781,48.709 147.843 M150.174 158.964 L 141.560 167.583 145.345 171.379 L 149.130 175.176 157.839 166.471 L 166.549 157.767 162.849 154.056 C 160.814 152.015,159.068 150.345,158.969 150.345 C 158.869 150.345,154.912 154.223,150.174 158.964 M195.772 154.056 L 192.072 157.767 200.782 166.471 L 209.491 175.176 213.276 171.379 L 217.060 167.583 208.447 158.964 C 203.709 154.223,199.751 150.345,199.652 150.345 C 199.552 150.345,197.806 152.015,195.772 154.056 M366.845 160.948 C 368.405 168.273,368.477 167.636,366.036 168.135 C 363.824 168.588,363.469 168.442,363.448 167.069 C 363.421 165.285,363.365 165.286,354.081 167.222 C 349.276 168.223,345.219 169.159,345.066 169.300 C 344.913 169.442,345.159 171.325,345.613 173.486 C 346.534 177.871,346.143 177.509,349.633 177.203 L 351.163 177.069 351.562 179.025 L 351.962 180.981 347.792 181.723 C 345.498 182.131,343.435 182.523,343.209 182.594 C 342.947 182.675,342.600 181.820,342.255 180.240 C 340.663 172.956,338.328 161.557,338.411 161.474 C 338.463 161.422,339.400 161.200,340.492 160.980 C 342.637 160.550,343.081 160.764,343.103 162.241 C 343.128 163.827,343.281 163.821,352.799 161.825 L 361.965 159.903 361.639 158.375 C 361.265 156.622,361.296 156.565,362.827 156.202 C 365.816 155.494,365.639 155.285,366.845 160.948 M170.516 179.311 L 161.900 187.933 170.605 196.638 L 179.310 205.343 188.016 196.638 L 196.721 187.933 188.104 179.311 C 183.365 174.569,179.408 170.690,179.310 170.690 C 179.213 170.690,175.255 174.569,170.516 179.311 M43.103 177.536 C 43.103 177.887,43.004 179.128,42.882 180.294 L 42.660 182.414 41.296 182.414 C 35.721 182.414,33.878 189.973,38.616 193.405 C 41.157 195.246,47.867 195.948,50.857 194.685 C 55.871 192.569,56.421 184.815,51.659 183.388 C 50.225 182.958,50.028 182.137,50.570 178.857 L 50.787 177.542 52.204 177.773 C 61.346 179.262,62.502 195.046,53.793 199.471 C 48.035 202.396,37.443 200.950,33.893 196.753 C 28.989 190.957,30.968 179.716,37.284 177.484 C 39.567 176.678,43.103 176.709,43.103 177.536 M225.770 184.058 L 222.068 187.770 225.690 191.379 L 229.311 194.988 233.104 191.207 L 236.897 187.426 233.368 183.885 C 231.428 181.938,229.757 180.345,229.655 180.345 C 229.554 180.345,227.805 182.016,225.770 184.058 M348.276 195.172 L 348.276 196.897 351.496 196.897 C 353.268 196.897,357.535 196.999,360.979 197.123 L 367.241 197.350 367.241 195.658 L 367.240 193.966 369.514 194.083 L 371.787 194.200 371.575 202.531 C 371.459 207.113,371.275 212.142,371.168 213.707 L 370.973 216.552 366.693 216.552 L 362.414 216.552 362.414 214.138 L 362.414 211.724 364.483 211.724 L 366.552 211.724 366.552 209.880 C 366.552 208.865,366.652 206.848,366.775 205.397 L 366.998 202.759 363.542 202.759 L 360.086 202.759 359.871 203.836 C 359.752 204.429,359.655 206.234,359.655 207.847 L 359.655 210.780 358.362 210.566 C 357.651 210.449,356.642 210.351,356.121 210.349 L 355.172 210.345 355.172 206.379 L 355.172 202.414 351.769 202.414 L 348.366 202.414 348.152 203.707 C 348.035 204.418,347.937 206.341,347.935 207.980 C 347.931 211.334,347.966 211.379,350.561 211.379 L 352.100 211.379 351.999 213.707 L 351.897 216.034 348.448 215.931 C 346.552 215.874,344.563 215.743,344.029 215.640 L 343.057 215.452 343.262 207.640 C 343.375 203.343,343.555 198.392,343.662 196.638 L 343.857 193.448 346.067 193.448 L 348.276 193.448 348.276 195.172 M145.687 204.141 L 142.249 207.592 150.951 216.294 L 159.654 224.997 163.187 221.464 L 166.719 217.932 158.104 209.311 C 153.365 204.569,149.406 200.690,149.306 200.690 C 149.207 200.690,147.578 202.243,145.687 204.141 M200.519 209.309 L 191.905 217.927 195.517 221.552 L 199.129 225.176 207.839 216.472 L 216.548 207.767 213.022 204.228 C 211.082 202.282,209.414 200.690,209.314 200.690 C 209.214 200.690,205.257 204.568,200.519 209.309 M59.455 216.663 C 59.980 219.664,60.355 222.173,60.289 222.240 C 60.223 222.306,59.216 222.468,58.052 222.600 L 55.936 222.839 55.694 221.406 L 55.452 219.973 53.847 220.894 C 52.964 221.401,52.098 221.947,51.922 222.107 C 51.728 222.284,51.907 224.124,52.380 226.802 C 53.406 232.619,53.277 232.306,54.753 232.574 C 55.458 232.701,56.408 232.896,56.864 233.005 C 57.670 233.199,57.688 233.160,57.479 231.637 L 57.264 230.070 59.385 229.696 C 60.552 229.491,61.546 229.362,61.594 229.410 C 61.673 229.489,63.395 238.778,63.554 239.984 C 63.600 240.327,63.020 240.625,61.724 240.925 C 59.407 241.462,58.967 241.330,58.960 240.097 C 58.952 238.510,58.784 238.450,49.138 236.576 C 44.017 235.582,39.541 234.688,39.190 234.591 C 38.699 234.455,38.594 234.561,38.733 235.052 C 38.833 235.403,39.012 236.176,39.131 236.770 L 39.348 237.851 37.196 238.230 C 36.013 238.438,34.989 238.552,34.920 238.483 C 34.810 238.373,33.337 230.453,33.040 228.377 C 32.945 227.715,34.332 226.759,43.621 221.078 L 54.310 214.542 54.197 213.004 L 54.083 211.466 56.093 211.143 C 58.621 210.737,58.337 210.271,59.455 216.663 M43.354 227.148 C 41.310 228.391,39.706 229.476,39.789 229.559 C 39.987 229.757,48.374 231.396,48.507 231.263 C 48.688 231.082,47.480 224.826,47.270 224.857 C 47.160 224.873,45.397 225.904,43.354 227.148 M354.133 230.882 C 361.262 232.562,365.433 236.522,365.787 241.947 C 366.368 250.838,359.785 257.570,352.868 255.159 L 351.840 254.801 352.517 252.265 L 353.193 249.729 355.131 249.886 C 360.332 250.309,363.087 243.485,359.260 239.658 C 357.189 237.587,352.514 235.869,348.966 235.875 C 342.759 235.885,339.417 244.449,344.578 247.118 C 345.874 247.789,346.021 247.633,346.755 244.802 L 347.391 242.350 348.675 242.555 C 349.382 242.668,350.348 242.908,350.822 243.088 L 351.685 243.416 351.008 245.760 C 350.636 247.049,349.993 249.384,349.579 250.948 C 348.715 254.218,348.910 254.134,344.995 252.939 C 337.401 250.623,335.176 244.220,339.182 236.212 C 341.757 231.065,346.991 229.199,354.133 230.882 M175.690 234.138 L 172.254 237.587 175.862 241.207 L 179.471 244.828 183.011 241.299 L 186.552 237.771 183.024 234.230 C 181.083 232.283,179.412 230.690,179.310 230.690 C 179.208 230.690,177.579 232.241,175.690 234.138 M69.097 255.144 C 71.817 260.429,71.755 259.798,69.667 260.856 C 67.517 261.945,67.470 261.943,66.873 260.685 L 66.379 259.646 60.280 263.351 C 56.926 265.388,54.210 267.075,54.246 267.100 C 54.281 267.124,58.034 266.707,62.586 266.173 C 67.138 265.639,71.041 265.196,71.260 265.187 C 71.671 265.172,73.448 267.939,73.448 268.594 C 73.448 268.895,66.970 276.295,62.615 280.966 L 61.554 282.105 62.760 281.597 C 67.122 279.761,74.658 276.491,74.758 276.391 C 74.824 276.325,74.636 275.802,74.339 275.228 L 73.800 274.185 75.713 273.090 C 76.766 272.488,77.672 272.050,77.726 272.118 C 78.140 272.634,82.759 281.720,82.759 282.020 C 82.759 282.341,79.703 284.138,79.156 284.138 C 79.059 284.138,78.663 283.517,78.276 282.759 C 77.413 281.067,78.567 280.806,69.753 284.685 C 65.622 286.504,61.735 288.203,61.116 288.463 L 59.991 288.934 60.684 290.070 C 61.065 290.696,61.377 291.398,61.378 291.632 C 61.379 292.019,58.338 293.793,57.673 293.793 C 57.519 293.793,56.403 291.795,55.193 289.352 L 52.994 284.912 57.260 279.956 C 59.606 277.230,62.527 273.953,63.750 272.672 C 64.974 271.392,65.846 270.345,65.688 270.345 C 65.530 270.345,64.458 270.502,63.304 270.695 C 61.152 271.053,46.475 272.461,46.353 272.320 C 46.105 272.033,42.069 263.748,42.069 263.525 C 42.069 263.372,42.921 262.829,43.961 262.319 L 45.854 261.391 46.569 262.793 C 47.448 264.515,46.627 264.820,56.108 259.251 L 63.769 254.752 63.067 253.377 C 62.269 251.812,62.211 251.931,64.393 250.661 C 66.370 249.511,66.032 249.190,69.097 255.144 M332.888 261.926 C 334.714 262.947,334.729 262.992,333.772 264.614 L 333.061 265.818 333.858 266.321 C 334.614 266.799,347.266 273.927,348.853 274.770 C 349.525 275.127,349.681 275.036,350.378 273.877 C 350.805 273.167,351.196 272.531,351.246 272.463 C 351.410 272.244,355.184 274.530,355.052 274.769 C 351.158 281.839,344.618 293.380,344.342 293.669 C 344.015 294.010,337.629 290.892,336.722 289.949 C 336.507 289.725,338.530 285.862,338.861 285.862 C 338.958 285.862,339.788 286.284,340.706 286.801 C 341.624 287.317,342.438 287.666,342.515 287.577 C 342.910 287.114,346.552 280.368,346.552 280.098 C 346.552 279.925,346.047 279.531,345.431 279.222 C 344.815 278.914,343.504 278.189,342.518 277.610 L 340.725 276.558 338.775 280.003 L 336.824 283.447 335.102 282.500 C 332.801 281.233,332.800 281.217,334.804 277.661 C 335.765 275.956,336.552 274.478,336.552 274.377 C 336.552 274.192,330.909 271.034,330.579 271.034 C 330.422 271.034,326.207 278.184,326.207 278.450 C 326.207 278.508,326.944 278.981,327.845 279.500 C 328.746 280.020,329.538 280.491,329.606 280.547 C 329.819 280.723,327.551 284.483,327.232 284.483 C 326.834 284.483,320.000 280.353,320.000 280.112 C 320.000 279.881,329.978 262.058,330.439 261.466 C 330.898 260.875,331.064 260.907,332.888 261.926 M137.610 337.612 C 144.872 340.976,144.298 340.351,142.908 343.376 L 141.752 345.890 140.355 345.177 C 138.960 344.466,138.958 344.463,139.479 343.456 C 139.765 342.902,140.000 342.377,140.000 342.291 C 140.000 342.115,135.573 340.000,135.206 340.000 C 135.077 340.000,134.564 340.831,134.066 341.847 L 133.160 343.693 135.287 344.681 C 136.457 345.224,137.477 345.711,137.554 345.762 C 137.631 345.813,137.421 346.460,137.088 347.200 L 136.481 348.545 134.225 347.523 C 131.718 346.386,131.796 346.354,130.816 348.887 C 130.143 350.624,129.976 350.381,132.758 351.697 L 134.988 352.752 135.607 351.546 L 136.226 350.340 137.596 351.040 L 138.967 351.739 137.755 354.145 C 137.088 355.469,136.399 356.552,136.223 356.552 C 135.890 356.552,124.118 351.130,123.833 350.844 C 123.452 350.464,124.861 348.215,125.355 348.415 C 125.634 348.528,126.069 348.705,126.322 348.808 C 126.699 348.961,130.207 342.078,131.592 338.468 C 131.697 338.194,131.418 337.929,130.883 337.795 C 129.860 337.538,129.805 337.239,130.526 335.845 C 131.205 334.533,130.680 334.402,137.610 337.612 M275.595 344.262 C 275.837 344.236,276.275 344.115,276.569 343.993 C 277.476 343.618,278.537 346.198,277.721 346.795 C 277.385 347.040,276.981 347.241,276.825 347.241 C 276.668 347.241,276.941 348.033,277.431 349.000 C 277.921 349.967,278.273 350.801,278.213 350.854 C 277.889 351.137,275.091 352.445,275.009 352.352 C 274.955 352.291,274.544 351.517,274.094 350.631 L 273.276 349.021 269.692 350.718 C 265.429 352.735,265.779 352.695,265.085 351.239 C 264.586 350.193,265.944 337.389,266.627 336.707 C 266.690 336.644,267.591 336.194,268.629 335.708 L 270.517 334.824 272.836 339.567 C 274.119 342.191,275.352 344.289,275.595 344.262 M268.648 343.482 C 268.412 345.265,268.137 347.072,268.038 347.498 L 267.857 348.271 269.877 347.360 C 270.988 346.859,271.945 346.411,272.004 346.364 C 272.064 346.317,271.430 344.920,270.595 343.259 L 269.078 340.240 268.648 343.482 M256.473 342.682 C 256.757 343.495,256.122 358.995,255.759 360.126 C 255.670 360.404,252.372 361.800,252.206 361.630 C 252.165 361.587,252.351 358.075,252.621 353.826 C 252.891 349.577,253.063 346.051,253.002 345.990 C 252.514 345.503,247.223 347.817,247.397 348.442 C 248.014 350.650,248.027 350.589,246.872 350.991 C 246.260 351.205,245.634 351.379,245.480 351.379 C 245.259 351.379,243.903 347.405,243.672 346.083 C 243.622 345.792,254.453 341.868,255.570 341.773 C 255.907 341.744,256.276 342.115,256.473 342.682 M158.563 345.360 C 163.500 346.826,165.801 353.662,160.918 352.356 C 159.450 351.963,159.383 351.891,159.546 350.881 C 159.843 349.056,157.001 347.474,155.111 348.413 C 153.236 349.344,154.012 350.969,157.280 352.955 C 164.930 357.601,161.225 365.398,152.712 362.571 C 149.250 361.421,147.122 357.866,148.551 355.618 C 148.968 354.962,151.868 355.925,151.996 356.762 C 152.269 358.548,152.491 358.924,153.583 359.442 C 155.776 360.482,157.586 360.029,157.586 358.439 C 157.586 357.574,156.802 356.819,153.857 354.849 C 147.133 350.351,150.758 343.042,158.563 345.360 M236.816 349.253 C 238.919 350.750,239.121 353.690,237.250 355.561 C 236.603 356.209,236.434 356.552,236.764 356.552 C 241.503 356.552,242.009 363.178,237.444 365.452 C 230.895 368.713,223.998 363.718,228.295 358.825 L 229.282 357.700 228.070 357.122 C 225.243 355.774,225.254 351.663,228.090 349.805 C 230.715 348.085,234.812 347.826,236.816 349.253 M180.809 350.249 L 188.341 351.200 188.105 353.790 C 187.829 356.829,187.705 357.015,186.159 356.725 C 185.040 356.515,184.992 356.445,185.111 355.197 L 185.236 353.890 183.566 353.700 C 181.502 353.466,181.820 352.832,181.024 358.783 C 180.153 365.305,180.141 365.073,181.354 365.339 C 182.280 365.543,182.598 367.366,181.859 368.236 C 181.570 368.576,174.138 367.435,174.138 367.051 C 174.138 365.228,174.597 364.421,175.553 364.562 C 176.700 364.730,176.618 365.008,177.445 358.177 C 178.090 352.852,178.147 353.079,176.072 352.764 L 174.552 352.534 174.335 353.890 C 174.136 355.133,172.410 355.605,171.460 354.676 C 171.065 354.290,172.228 349.309,172.714 349.304 C 173.023 349.300,176.666 349.725,180.809 350.249 M215.666 351.810 C 215.755 352.237,215.998 355.224,216.207 358.448 C 216.727 366.480,216.525 365.912,218.758 365.649 L 220.604 365.432 220.774 366.768 C 221.003 368.563,221.139 368.503,215.899 368.932 C 208.574 369.532,208.906 369.585,209.032 367.845 L 209.138 366.379 211.166 366.275 L 213.195 366.170 212.986 364.033 C 212.871 362.858,212.674 360.478,212.549 358.743 L 212.320 355.590 210.679 356.558 L 209.037 357.526 208.070 356.517 C 207.127 355.532,207.119 355.495,207.775 355.025 C 208.145 354.760,209.457 353.755,210.690 352.792 C 213.297 350.755,215.361 350.348,215.666 351.810 M230.603 351.921 C 228.509 353.057,229.955 355.862,232.635 355.862 C 233.322 355.862,235.172 353.996,235.172 353.302 C 235.172 351.659,232.549 350.866,230.603 351.921 M231.810 359.167 C 230.358 360.311,230.291 361.705,231.637 362.764 C 233.184 363.981,236.555 363.069,237.015 361.308 C 237.613 359.021,233.922 357.504,231.810 359.167 " stroke="none" fill="#fcfcfc" fill-rule="evenodd"></path><path id="path2" d="M191.121 10.238 C 191.453 10.324,191.996 10.324,192.328 10.238 C 192.659 10.151,192.388 10.080,191.724 10.080 C 191.060 10.080,190.789 10.151,191.121 10.238 M207.672 10.238 C 208.004 10.324,208.547 10.324,208.879 10.238 C 209.211 10.151,208.940 10.080,208.276 10.080 C 207.612 10.080,207.341 10.151,207.672 10.238 M190.770 36.897 C 190.770 37.560,190.841 37.832,190.927 37.500 C 191.014 37.168,191.014 36.625,190.927 36.293 C 190.841 35.961,190.770 36.233,190.770 36.897 M185.597 40.345 C 185.597 41.009,185.668 41.280,185.755 40.948 C 185.842 40.616,185.842 40.073,185.755 39.741 C 185.668 39.409,185.597 39.681,185.597 40.345 M244.563 42.759 C 244.563 43.422,244.634 43.694,244.720 43.362 C 244.807 43.030,244.807 42.487,244.720 42.155 C 244.634 41.823,244.563 42.095,244.563 42.759 M191.466 42.651 C 191.797 42.738,192.341 42.738,192.672 42.651 C 193.004 42.565,192.733 42.494,192.069 42.494 C 191.405 42.494,191.134 42.565,191.466 42.651 M196.293 46.789 C 196.625 46.876,197.168 46.876,197.500 46.789 C 197.832 46.703,197.560 46.632,196.897 46.632 C 196.233 46.632,195.961 46.703,196.293 46.789 M185.942 47.931 C 185.942 48.595,186.013 48.866,186.100 48.534 C 186.187 48.203,186.187 47.659,186.100 47.328 C 186.013 46.996,185.942 47.267,185.942 47.931 M191.459 52.069 C 191.459 52.733,191.530 53.004,191.617 52.672 C 191.704 52.341,191.704 51.797,191.617 51.466 C 191.530 51.134,191.459 51.405,191.459 52.069 M198.362 58.514 C 198.694 58.600,199.237 58.600,199.569 58.514 C 199.901 58.427,199.629 58.356,198.966 58.356 C 198.302 58.356,198.030 58.427,198.362 58.514 M190.776 58.858 C 191.108 58.945,191.651 58.945,191.983 58.858 C 192.315 58.772,192.043 58.701,191.379 58.701 C 190.716 58.701,190.444 58.772,190.776 58.858 M126.638 67.824 C 126.970 67.911,127.513 67.911,127.845 67.824 C 128.177 67.737,127.905 67.666,127.241 67.666 C 126.578 67.666,126.306 67.737,126.638 67.824 M309.390 73.793 C 309.390 74.457,309.461 74.728,309.548 74.397 C 309.635 74.065,309.635 73.522,309.548 73.190 C 309.461 72.858,309.390 73.129,309.390 73.793 M82.220 79.052 L 81.207 80.172 82.328 79.160 C 83.372 78.216,83.607 77.931,83.340 77.931 C 83.281 77.931,82.777 78.435,82.220 79.052 M99.461 94.914 L 98.448 96.034 99.569 95.022 C 100.185 94.465,100.690 93.960,100.690 93.901 C 100.690 93.635,100.405 93.869,99.461 94.914 M161.544 122.500 L 158.793 125.345 161.638 122.594 C 164.280 120.040,164.640 119.655,164.388 119.655 C 164.337 119.655,163.056 120.935,161.544 122.500 M247.240 137.500 L 229.483 155.345 247.328 137.587 C 257.142 127.821,265.172 119.791,265.172 119.743 C 265.172 119.500,263.746 120.913,247.240 137.500 M175.167 133.707 L 171.207 137.759 175.259 133.799 L 179.310 129.839 183.362 133.799 L 187.414 137.759 183.454 133.707 C 181.276 131.478,179.411 129.655,179.310 129.655 C 179.209 129.655,177.345 131.478,175.167 133.707 M138.101 145.948 L 129.828 154.310 138.190 146.037 C 145.960 138.349,146.707 137.586,146.463 137.586 C 146.414 137.586,142.651 141.349,138.101 145.948 M255.516 154.052 L 241.897 167.759 255.603 154.140 C 268.343 141.482,269.465 140.345,269.223 140.345 C 269.174 140.345,263.006 146.513,255.516 154.052 M54.914 142.651 C 55.246 142.738,55.789 142.738,56.121 142.651 C 56.453 142.565,56.181 142.494,55.517 142.494 C 54.853 142.494,54.582 142.565,54.914 142.651 M47.328 142.996 C 47.659 143.083,48.203 143.083,48.534 142.996 C 48.866 142.910,48.595 142.839,47.931 142.839 C 47.267 142.839,46.996 142.910,47.328 142.996 M47.504 147.830 C 47.933 147.913,48.554 147.909,48.883 147.823 C 49.213 147.737,48.862 147.669,48.103 147.673 C 47.345 147.677,47.075 147.748,47.504 147.830 M149.997 158.879 L 141.207 167.759 150.086 158.968 C 154.970 154.133,158.966 150.138,158.966 150.089 C 158.966 149.845,158.166 150.628,149.997 158.879 M208.273 158.705 L 217.061 167.583 213.101 171.636 L 209.142 175.690 213.276 171.637 L 217.411 167.585 208.448 158.706 L 199.484 149.828 208.273 158.705 M269.439 176.034 C 269.440 178.121,269.497 178.930,269.566 177.832 C 269.634 176.735,269.634 175.028,269.564 174.039 C 269.495 173.050,269.439 173.948,269.439 176.034 M129.781 177.414 C 129.782 179.310,129.840 180.042,129.910 179.040 C 129.980 178.038,129.979 176.486,129.908 175.592 C 129.837 174.697,129.780 175.517,129.781 177.414 M227.574 181.983 L 225.690 183.966 227.675 182.078 L 229.661 180.190 233.365 183.802 L 237.069 187.414 233.454 183.707 C 229.195 179.339,229.893 179.544,227.574 181.983 M54.915 188.103 C 54.918 188.862,54.989 189.132,55.071 188.703 C 55.154 188.274,55.151 187.653,55.065 187.324 C 54.978 186.994,54.911 187.345,54.915 188.103 M187.928 196.810 L 179.138 205.690 188.017 196.899 C 192.901 192.064,196.897 188.069,196.897 188.020 C 196.897 187.776,196.097 188.559,187.928 196.810 M10.099 194.655 C 10.101 195.603,10.168 195.950,10.247 195.426 C 10.327 194.902,10.325 194.126,10.243 193.702 C 10.161 193.278,10.096 193.707,10.099 194.655 M129.808 204.828 C 129.808 210.422,129.855 212.711,129.913 209.914 C 129.971 207.116,129.971 202.539,129.913 199.741 C 129.855 196.944,129.808 199.233,129.808 204.828 M269.458 202.414 C 269.458 206.681,269.507 208.427,269.568 206.293 C 269.628 204.159,269.628 200.668,269.568 198.534 C 269.507 196.401,269.458 198.147,269.458 202.414 M389.794 200.000 C 389.794 202.940,389.847 204.142,389.911 202.672 C 389.976 201.203,389.976 198.797,389.911 197.328 C 389.847 195.858,389.794 197.060,389.794 200.000 M371.478 196.724 C 371.481 197.672,371.547 198.019,371.627 197.495 C 371.706 196.971,371.704 196.195,371.622 195.771 C 371.540 195.347,371.475 195.776,371.478 196.724 M353.539 197.144 C 354.063 197.223,354.839 197.221,355.263 197.139 C 355.687 197.057,355.259 196.993,354.310 196.995 C 353.362 196.998,353.015 197.065,353.539 197.144 M365.603 197.479 C 365.935 197.566,366.478 197.566,366.810 197.479 C 367.142 197.392,366.871 197.321,366.207 197.321 C 365.543 197.321,365.272 197.392,365.603 197.479 M343.547 201.207 C 343.549 202.155,343.616 202.502,343.696 201.978 C 343.775 201.454,343.773 200.678,343.691 200.254 C 343.609 199.830,343.544 200.259,343.547 201.207 M259.310 209.828 C 264.713 215.233,269.211 219.655,269.306 219.655 C 269.401 219.655,265.058 215.233,259.655 209.828 C 254.252 204.422,249.755 200.000,249.660 200.000 C 249.565 200.000,253.908 204.422,259.310 209.828 M348.534 202.312 C 348.961 202.395,349.659 202.395,350.086 202.312 C 350.513 202.230,350.164 202.163,349.310 202.163 C 348.457 202.163,348.108 202.230,348.534 202.312 M360.436 202.661 C 360.960 202.740,361.736 202.738,362.160 202.657 C 362.584 202.575,362.155 202.510,361.207 202.512 C 360.259 202.515,359.912 202.582,360.436 202.661 M355.271 204.310 C 355.274 205.259,355.341 205.606,355.420 205.081 C 355.499 204.557,355.497 203.781,355.415 203.357 C 355.333 202.933,355.268 203.362,355.271 204.310 M10.103 205.172 C 10.103 206.216,10.168 206.642,10.247 206.121 C 10.326 205.599,10.326 204.746,10.247 204.224 C 10.168 203.703,10.103 204.129,10.103 205.172 M371.133 209.138 C 371.136 210.086,371.203 210.433,371.282 209.909 C 371.361 209.385,371.359 208.609,371.277 208.185 C 371.195 207.761,371.131 208.190,371.133 209.138 M366.603 210.406 C 366.567 211.295,366.372 211.721,365.948 211.831 C 365.383 211.979,365.383 211.991,365.959 212.029 C 366.707 212.078,366.997 211.418,366.802 210.115 C 366.676 209.277,366.648 209.318,366.603 210.406 M351.804 212.759 C 351.804 213.422,351.875 213.694,351.962 213.362 C 352.049 213.030,352.049 212.487,351.962 212.155 C 351.875 211.823,351.804 212.095,351.804 212.759 M343.202 213.621 C 343.205 214.569,343.272 214.916,343.351 214.392 C 343.430 213.868,343.428 213.092,343.346 212.668 C 343.264 212.244,343.199 212.672,343.202 213.621 M364.052 216.461 C 365.047 216.531,366.677 216.531,367.672 216.461 C 368.668 216.391,367.853 216.334,365.862 216.334 C 363.871 216.334,363.056 216.391,364.052 216.461 M163.614 221.121 L 160.517 224.310 163.707 221.214 C 165.461 219.511,166.897 218.076,166.897 218.024 C 166.897 217.774,166.489 218.158,163.614 221.121 M182.752 233.879 C 186.110 237.322,186.552 237.743,186.552 237.494 C 186.552 237.443,184.884 235.775,182.845 233.787 L 179.138 230.172 182.752 233.879 M212.740 236.466 L 211.552 237.759 212.845 236.570 C 214.048 235.464,214.296 235.172,214.033 235.172 C 213.976 235.172,213.394 235.754,212.740 236.466 M195.166 254.052 L 191.552 257.759 195.259 254.144 C 197.297 252.156,198.966 250.488,198.966 250.437 C 198.966 250.188,198.524 250.609,195.166 254.052 M208.621 259.828 C 213.834 265.043,218.176 269.310,218.271 269.310 C 218.366 269.310,214.178 265.043,208.966 259.828 C 203.753 254.612,199.410 250.345,199.315 250.345 C 199.220 250.345,203.408 254.612,208.621 259.828 M173.966 275.172 C 171.125 278.017,168.879 280.345,168.974 280.345 C 169.069 280.345,171.470 278.017,174.310 275.172 C 177.150 272.328,179.397 270.000,179.302 270.000 C 179.207 270.000,176.806 272.328,173.966 275.172 M63.276 331.724 C 64.017 332.483,64.700 333.103,64.795 333.103 C 64.890 333.103,64.361 332.483,63.621 331.724 C 62.880 330.966,62.196 330.345,62.101 330.345 C 62.007 330.345,62.535 330.966,63.276 331.724 M333.956 334.224 L 331.552 336.724 334.052 334.320 C 336.374 332.086,336.709 331.724,336.456 331.724 C 336.404 331.724,335.279 332.849,333.956 334.224 M67.931 336.379 C 68.574 337.043,69.178 337.586,69.273 337.586 C 69.368 337.586,68.919 337.043,68.276 336.379 C 67.632 335.716,67.029 335.172,66.934 335.172 C 66.839 335.172,67.288 335.716,67.931 336.379 " stroke="none" fill="#7c84a4" fill-rule="evenodd"></path><path id="path3" d="M193.539 10.247 C 194.063 10.327,194.839 10.325,195.263 10.243 C 195.687 10.161,195.259 10.096,194.310 10.099 C 193.362 10.101,193.015 10.168,193.539 10.247 M204.741 10.243 C 205.168 10.326,205.866 10.326,206.293 10.243 C 206.720 10.161,206.371 10.094,205.517 10.094 C 204.664 10.094,204.315 10.161,204.741 10.243 M198.707 30.583 C 199.039 30.669,199.582 30.669,199.914 30.583 C 200.246 30.496,199.974 30.425,199.310 30.425 C 198.647 30.425,198.375 30.496,198.707 30.583 M193.879 35.410 C 194.211 35.497,194.754 35.497,195.086 35.410 C 195.418 35.323,195.147 35.252,194.483 35.252 C 193.819 35.252,193.547 35.323,193.879 35.410 M182.676 35.761 C 183.105 35.844,183.726 35.840,184.056 35.754 C 184.385 35.668,184.034 35.600,183.276 35.604 C 182.517 35.608,182.247 35.679,182.676 35.761 M241.379 36.315 C 241.379 36.374,241.884 36.878,242.500 37.435 L 243.621 38.448 242.608 37.328 C 241.664 36.283,241.379 36.048,241.379 36.315 M201.810 39.203 C 202.142 39.290,202.685 39.290,203.017 39.203 C 203.349 39.116,203.078 39.046,202.414 39.046 C 201.750 39.046,201.478 39.116,201.810 39.203 M200.425 50.690 C 200.425 51.353,200.496 51.625,200.583 51.293 C 200.669 50.961,200.669 50.418,200.583 50.086 C 200.496 49.754,200.425 50.026,200.425 50.690 M205.266 56.897 C 205.266 57.750,205.334 58.099,205.416 57.672 C 205.498 57.246,205.498 56.547,205.416 56.121 C 205.334 55.694,205.266 56.043,205.266 56.897 M200.431 58.514 C 200.763 58.600,201.306 58.600,201.638 58.514 C 201.970 58.427,201.698 58.356,201.034 58.356 C 200.371 58.356,200.099 58.427,200.431 58.514 M192.845 58.858 C 193.177 58.945,193.720 58.945,194.052 58.858 C 194.384 58.772,194.112 58.701,193.448 58.701 C 192.784 58.701,192.513 58.772,192.845 58.858 M70.326 61.293 L 69.138 62.586 70.431 61.398 C 71.635 60.292,71.883 60.000,71.619 60.000 C 71.562 60.000,70.980 60.582,70.326 61.293 M330.330 62.155 C 331.176 63.056,331.913 63.793,331.968 63.793 C 332.227 63.793,331.954 63.484,330.431 62.055 L 328.793 60.517 330.330 62.155 M296.125 62.313 C 296.554 62.395,297.174 62.392,297.504 62.306 C 297.834 62.220,297.483 62.152,296.724 62.156 C 295.966 62.160,295.696 62.230,296.125 62.313 M287.931 66.379 C 287.093 67.233,286.486 67.931,286.581 67.931 C 286.675 67.931,287.438 67.233,288.276 66.379 C 289.113 65.526,289.721 64.828,289.626 64.828 C 289.532 64.828,288.769 65.526,287.931 66.379 M337.227 69.052 C 338.072 69.953,338.810 70.690,338.865 70.690 C 339.124 70.690,338.850 70.380,337.328 68.951 L 335.690 67.414 337.227 69.052 M61.361 70.259 L 60.172 71.552 61.466 70.363 C 62.669 69.257,62.917 68.966,62.654 68.966 C 62.596 68.966,62.014 69.547,61.361 70.259 M291.706 70.603 L 290.517 71.897 291.810 70.708 C 293.014 69.602,293.262 69.310,292.999 69.310 C 292.941 69.310,292.359 69.892,291.706 70.603 M90.829 70.776 L 90.172 71.552 90.962 70.883 L 91.751 70.214 94.673 73.121 C 96.597 75.035,97.528 76.207,97.398 76.549 C 97.239 76.969,97.285 76.985,97.640 76.633 C 97.995 76.280,97.488 75.603,94.995 73.098 C 91.530 69.618,91.720 69.724,90.829 70.776 M84.828 76.379 C 83.990 77.233,83.382 77.931,83.477 77.931 C 83.572 77.931,84.335 77.233,85.172 76.379 C 86.010 75.526,86.618 74.828,86.523 74.828 C 86.428 74.828,85.665 75.526,84.828 76.379 M88.966 78.793 C 88.128 79.647,87.520 80.345,87.615 80.345 C 87.710 80.345,88.473 79.647,89.310 78.793 C 90.148 77.940,90.756 77.241,90.661 77.241 C 90.566 77.241,89.803 77.940,88.966 78.793 M281.804 78.621 C 281.804 79.284,281.875 79.556,281.962 79.224 C 282.049 78.892,282.049 78.349,281.962 78.017 C 281.875 77.685,281.804 77.957,281.804 78.621 M77.746 83.190 L 76.034 85.000 77.845 83.289 C 79.527 81.699,79.813 81.379,79.556 81.379 C 79.501 81.379,78.687 82.194,77.746 83.190 M94.119 83.707 L 92.931 85.000 94.224 83.812 C 94.935 83.158,95.517 82.576,95.517 82.519 C 95.517 82.255,95.225 82.503,94.119 83.707 M75.517 85.625 C 75.517 85.684,76.022 86.189,76.638 86.746 L 77.759 87.759 76.746 86.638 C 75.802 85.593,75.517 85.359,75.517 85.625 M79.461 87.672 L 78.448 88.793 79.569 87.780 C 80.614 86.836,80.848 86.552,80.582 86.552 C 80.522 86.552,80.018 87.056,79.461 87.672 M83.276 88.966 C 84.210 89.914,85.052 90.690,85.146 90.690 C 85.241 90.690,84.555 89.914,83.621 88.966 C 82.687 88.017,81.845 87.241,81.750 87.241 C 81.655 87.241,82.342 88.017,83.276 88.966 M94.294 89.741 L 92.931 91.207 94.397 89.844 C 95.759 88.576,96.021 88.276,95.760 88.276 C 95.703 88.276,95.044 88.935,94.294 89.741 M102.069 92.241 C 101.231 93.095,100.624 93.793,100.718 93.793 C 100.813 93.793,101.576 93.095,102.414 92.241 C 103.251 91.388,103.859 90.690,103.764 90.690 C 103.669 90.690,102.907 91.388,102.069 92.241 M106.207 94.655 C 105.369 95.509,104.762 96.207,104.856 96.207 C 104.951 96.207,105.714 95.509,106.552 94.655 C 107.389 93.802,107.997 93.103,107.902 93.103 C 107.807 93.103,107.044 93.802,106.207 94.655 M95.862 94.246 C 95.862 94.305,96.366 94.809,96.983 95.367 L 98.103 96.379 97.091 95.259 C 96.147 94.214,95.862 93.979,95.862 94.246 M90.172 96.207 C 91.106 97.155,91.948 97.931,92.043 97.931 C 92.138 97.931,91.451 97.155,90.517 96.207 C 89.583 95.259,88.741 94.483,88.647 94.483 C 88.552 94.483,89.238 95.259,90.172 96.207 M99.125 101.466 L 97.414 103.276 99.224 101.565 C 100.220 100.624,101.034 99.809,101.034 99.754 C 101.034 99.497,100.715 99.783,99.125 101.466 M153.793 119.750 C 153.793 119.802,154.996 121.005,156.466 122.422 L 159.138 125.000 156.560 122.328 C 154.166 119.846,153.793 119.498,153.793 119.750 M202.069 122.241 C 200.656 123.664,199.578 124.828,199.672 124.828 C 199.767 124.828,201.001 123.664,202.414 122.241 C 203.827 120.819,204.905 119.655,204.810 119.655 C 204.715 119.655,203.482 120.819,202.069 122.241 M220.860 128.707 L 211.897 137.759 220.948 128.796 C 229.360 120.467,230.155 119.655,229.911 119.655 C 229.863 119.655,225.789 123.728,220.860 128.707 M138.103 129.310 C 142.652 133.862,146.452 137.586,146.546 137.586 C 146.641 137.586,142.997 133.862,138.448 129.310 C 133.900 124.759,130.100 121.034,130.005 121.034 C 129.911 121.034,133.555 124.759,138.103 129.310 M269.429 137.759 C 269.430 139.276,269.490 139.854,269.563 139.043 C 269.636 138.232,269.635 136.990,269.561 136.284 C 269.487 135.578,269.427 136.241,269.429 137.759 M175.431 141.379 L 179.310 145.341 183.190 141.379 L 187.069 137.418 183.190 141.203 L 179.310 144.988 175.431 141.203 L 171.552 137.418 175.431 141.379 M60.431 142.307 C 60.763 142.393,61.306 142.393,61.638 142.307 C 61.970 142.220,61.698 142.149,61.034 142.149 C 60.371 142.149,60.099 142.220,60.431 142.307 M52.845 142.651 C 53.177 142.738,53.720 142.738,54.052 142.651 C 54.384 142.565,54.112 142.494,53.448 142.494 C 52.784 142.494,52.513 142.565,52.845 142.651 M49.918 147.830 C 50.347 147.913,50.967 147.909,51.297 147.823 C 51.627 147.737,51.276 147.669,50.517 147.673 C 49.759 147.677,49.489 147.748,49.918 147.830 M162.674 153.877 L 166.551 157.754 157.845 166.550 L 149.138 175.345 158.016 166.556 L 166.894 157.767 163.021 153.883 C 160.892 151.747,159.070 150.000,158.973 150.000 C 158.876 150.000,160.542 151.745,162.674 153.877 M195.599 153.883 L 191.727 157.767 200.605 166.556 L 209.483 175.345 200.776 166.550 L 192.070 157.754 195.947 153.877 C 198.079 151.745,199.744 150.000,199.648 150.000 C 199.551 150.000,197.729 151.747,195.599 153.883 M129.808 164.138 C 129.808 169.733,129.855 172.022,129.913 169.224 C 129.971 166.427,129.971 161.849,129.913 159.052 C 129.855 156.254,129.808 158.543,129.808 164.138 M269.460 163.793 C 269.460 168.629,269.509 170.608,269.568 168.190 C 269.627 165.772,269.627 161.815,269.568 159.397 C 269.509 156.978,269.460 158.957,269.460 163.793 M170.515 179.052 L 161.897 187.759 170.603 179.140 L 179.310 170.522 188.190 179.313 L 197.069 188.103 188.278 179.224 C 183.444 174.341,179.408 170.345,179.310 170.345 C 179.213 170.345,175.255 174.263,170.515 179.052 M265.684 183.534 L 261.897 187.414 265.776 183.627 C 269.379 180.109,269.812 179.655,269.563 179.655 C 269.512 179.655,267.767 181.401,265.684 183.534 M132.931 184.138 C 134.820 186.034,136.444 187.586,136.539 187.586 C 136.634 187.586,135.165 186.034,133.276 184.138 C 131.386 182.241,129.763 180.690,129.668 180.690 C 129.573 180.690,131.042 182.241,132.931 184.138 M132.925 191.466 L 129.483 195.000 133.017 191.558 C 134.961 189.665,136.552 188.075,136.552 188.024 C 136.552 187.774,136.121 188.183,132.925 191.466 M225.511 191.466 C 227.499 193.504,229.167 195.172,229.218 195.172 C 229.467 195.172,229.046 194.730,225.603 191.373 L 221.897 187.759 225.511 191.466 M10.129 199.828 C 10.130 201.914,10.187 202.723,10.255 201.625 C 10.324 200.528,10.323 198.821,10.254 197.832 C 10.184 196.843,10.128 197.741,10.129 199.828 M343.547 198.103 C 343.549 199.052,343.616 199.399,343.696 198.875 C 343.775 198.350,343.773 197.575,343.691 197.150 C 343.609 196.726,343.544 197.155,343.547 198.103 M356.643 197.144 C 357.167 197.223,357.943 197.221,358.367 197.139 C 358.791 197.057,358.362 196.993,357.414 196.995 C 356.466 196.998,356.119 197.065,356.643 197.144 M371.478 200.172 C 371.481 201.121,371.547 201.468,371.627 200.944 C 371.706 200.419,371.704 199.644,371.622 199.219 C 371.540 198.795,371.475 199.224,371.478 200.172 M245.342 203.796 L 241.558 207.592 254.141 220.089 L 266.723 232.586 254.314 220.088 L 241.904 207.590 245.688 203.795 C 247.768 201.708,249.393 200.000,249.299 200.000 C 249.204 200.000,247.423 201.708,245.342 203.796 M145.515 203.968 L 141.904 207.592 150.774 216.462 C 159.408 225.096,159.660 225.314,160.253 224.667 C 160.837 224.031,160.836 224.023,160.235 224.477 C 159.663 224.909,158.845 224.188,150.928 216.271 L 142.248 207.592 145.859 203.968 C 147.845 201.975,149.393 200.345,149.298 200.345 C 149.203 200.345,147.501 201.975,145.515 203.968 M212.752 203.879 C 216.110 207.322,216.552 207.743,216.552 207.494 C 216.552 207.443,214.884 205.775,212.845 203.787 L 209.138 200.172 212.752 203.879 M158.621 209.828 C 163.075 214.284,166.796 217.931,166.891 217.931 C 166.986 217.931,163.419 214.284,158.966 209.828 C 154.512 205.371,150.790 201.724,150.695 201.724 C 150.600 201.724,154.167 205.371,158.621 209.828 M366.650 207.759 C 366.653 208.707,366.720 209.054,366.799 208.530 C 366.878 208.006,366.876 207.230,366.794 206.806 C 366.713 206.381,366.648 206.810,366.650 207.759 M343.202 210.517 C 343.205 211.466,343.272 211.813,343.351 211.288 C 343.430 210.764,343.428 209.988,343.346 209.564 C 343.264 209.140,343.199 209.569,343.202 210.517 M371.133 212.241 C 371.136 213.190,371.203 213.537,371.282 213.013 C 371.361 212.488,371.359 211.712,371.277 211.288 C 371.195 210.864,371.131 211.293,371.133 212.241 M351.771 214.717 C 351.735 215.562,351.545 215.849,350.948 215.964 L 350.172 216.113 350.959 216.160 C 351.845 216.213,352.197 215.607,351.971 214.422 C 351.852 213.798,351.808 213.864,351.771 214.717 M221.376 227.845 L 213.966 235.345 221.466 227.934 C 228.434 221.048,229.121 220.345,228.876 220.345 C 228.827 220.345,225.452 223.720,221.376 227.845 M243.448 234.655 C 251.317 242.526,257.833 248.966,257.928 248.966 C 258.023 248.966,251.662 242.526,243.793 234.655 C 235.924 226.784,229.408 220.345,229.313 220.345 C 229.219 220.345,235.579 226.784,243.448 234.655 M138.448 229.310 C 142.997 233.862,146.796 237.586,146.891 237.586 C 146.986 237.586,143.342 233.862,138.793 229.310 C 134.244 224.759,130.445 221.034,130.350 221.034 C 130.255 221.034,133.900 224.759,138.448 229.310 M175.511 241.121 C 177.499 243.159,179.167 244.828,179.218 244.828 C 179.467 244.828,179.046 244.386,175.603 241.028 L 171.897 237.414 175.511 241.121 M143.097 241.638 L 139.483 245.345 143.190 241.730 C 146.633 238.373,147.053 237.931,146.804 237.931 C 146.753 237.931,145.085 239.599,143.097 241.638 M163.097 253.879 C 166.455 257.322,166.897 257.743,166.897 257.494 C 166.897 257.443,165.228 255.775,163.190 253.787 L 159.483 250.172 163.097 253.879 M207.071 272.759 C 215.415 281.198,222.312 288.058,222.399 288.003 C 222.486 287.948,215.659 281.043,207.229 272.658 L 191.900 257.414 207.071 272.759 M223.966 275.172 C 227.185 278.397,229.898 281.034,229.992 281.034 C 230.087 281.034,227.530 278.397,224.310 275.172 C 221.090 271.948,218.378 269.310,218.283 269.310 C 218.189 269.310,220.746 271.948,223.966 275.172 M193.621 284.483 C 201.585 292.448,208.178 298.966,208.273 298.966 C 208.368 298.966,201.929 292.448,193.966 284.483 C 186.002 276.517,179.408 270.000,179.313 270.000 C 179.219 270.000,185.657 276.517,193.621 284.483 M63.610 272.845 L 61.552 275.000 63.707 272.942 C 65.709 271.030,66.020 270.690,65.765 270.690 C 65.712 270.690,64.742 271.659,63.610 272.845 M163.621 275.517 C 166.081 277.983,168.171 280.000,168.266 280.000 C 168.361 280.000,166.426 277.983,163.966 275.517 C 161.505 273.052,159.415 271.034,159.320 271.034 C 159.225 271.034,161.161 273.052,163.621 275.517 M231.185 280.086 L 230.172 281.207 231.293 280.194 C 231.909 279.637,232.414 279.133,232.414 279.073 C 232.414 278.807,232.129 279.042,231.185 280.086 M339.116 328.707 L 338.103 329.828 339.224 328.815 C 339.841 328.258,340.345 327.753,340.345 327.694 C 340.345 327.428,340.060 327.662,339.116 328.707 M328.771 339.052 L 327.759 340.172 328.879 339.160 C 329.496 338.603,330.000 338.098,330.000 338.039 C 330.000 337.773,329.715 338.007,328.771 339.052 M252.069 360.862 C 252.069 361.336,252.203 361.724,252.366 361.724 C 252.529 361.724,252.589 361.336,252.498 360.862 C 252.408 360.388,252.274 360.000,252.201 360.000 C 252.128 360.000,252.069 360.388,252.069 360.862 " stroke="none" fill="#949cb4" fill-rule="evenodd"></path><path id="path4" d="" stroke="none" fill="#8c94ac" fill-rule="evenodd"></path></g></svg>