<svg id="svg" version="1.1" xmlns="http://www.w3.org/2000/svg" xmlns:xlink="http://www.w3.org/1999/xlink" width="400" height="234.66666666666666" viewBox="0, 0, 400,234.66666666666666"><g id="svgg"><path id="path0" d="M317.611 0.170 C 315.741 0.213,314.109 0.351,313.984 0.476 C 313.858 0.602,312.981 0.704,312.035 0.704 C 310.722 0.704,310.282 0.788,310.179 1.056 C 310.082 1.309,309.686 1.408,308.778 1.408 C 308.081 1.408,307.512 1.514,307.512 1.643 C 307.512 1.772,307.036 1.878,306.455 1.878 C 305.874 1.878,305.399 1.984,305.399 2.113 C 305.399 2.242,304.973 2.347,304.453 2.347 C 303.828 2.347,303.460 2.467,303.371 2.700 C 303.284 2.928,302.920 3.052,302.336 3.052 C 301.841 3.052,301.371 3.157,301.291 3.286 C 301.211 3.415,300.842 3.521,300.469 3.521 C 300.097 3.521,299.728 3.627,299.648 3.756 C 299.568 3.885,299.133 3.991,298.681 3.991 C 298.229 3.991,297.917 4.083,297.987 4.197 C 298.057 4.310,297.792 4.467,297.398 4.546 C 297.001 4.626,296.748 4.795,296.829 4.927 C 296.918 5.070,296.644 5.164,296.141 5.164 C 295.681 5.164,295.305 5.270,295.305 5.399 C 295.305 5.528,295.041 5.634,294.718 5.634 C 294.396 5.634,294.131 5.720,294.131 5.826 C 294.131 5.932,293.591 6.165,292.931 6.345 C 292.271 6.525,291.679 6.808,291.615 6.975 C 291.551 7.141,291.370 7.277,291.212 7.277 C 291.054 7.277,290.413 7.536,289.788 7.853 C 289.163 8.169,288.564 8.374,288.457 8.308 C 288.350 8.242,288.263 8.353,288.263 8.554 C 288.263 8.764,288.062 8.920,287.793 8.920 C 287.535 8.920,287.324 9.026,287.324 9.155 C 287.324 9.284,287.133 9.390,286.899 9.390 C 286.665 9.390,286.247 9.601,285.970 9.859 C 285.692 10.117,285.250 10.329,284.986 10.329 C 284.717 10.329,284.507 10.483,284.507 10.681 C 284.507 10.874,284.344 11.033,284.145 11.033 C 283.946 11.033,283.556 11.244,283.279 11.502 C 283.002 11.761,282.584 11.972,282.350 11.972 C 282.116 11.972,281.925 12.075,281.925 12.202 C 281.925 12.329,281.662 12.498,281.340 12.579 C 281.018 12.660,280.813 12.821,280.884 12.936 C 280.955 13.051,280.849 13.146,280.648 13.146 C 280.446 13.146,280.282 13.231,280.282 13.336 C 280.282 13.441,279.912 13.672,279.460 13.850 C 279.008 14.027,278.638 14.266,278.638 14.380 C 278.638 14.728,277.992 15.258,277.568 15.258 C 277.348 15.258,276.997 15.450,276.788 15.685 C 276.579 15.920,276.224 16.181,275.998 16.265 C 275.555 16.429,275.397 17.840,275.822 17.840 C 275.951 17.840,276.056 18.025,276.057 18.251 C 276.057 18.664,277.024 19.953,277.333 19.953 C 277.656 19.953,278.169 20.631,278.169 21.058 C 278.169 21.297,278.380 21.645,278.638 21.831 C 278.897 22.017,279.108 22.282,279.108 22.421 C 279.108 22.559,279.478 23.064,279.930 23.543 C 280.381 24.022,280.751 24.614,280.751 24.858 C 280.751 25.102,280.910 25.363,281.103 25.437 C 281.297 25.511,281.455 25.734,281.455 25.932 C 281.455 26.129,281.544 26.291,281.653 26.291 C 281.761 26.291,282.138 26.819,282.489 27.465 C 282.840 28.110,283.227 28.638,283.348 28.638 C 283.469 28.638,283.568 28.850,283.568 29.108 C 283.568 29.366,283.674 29.577,283.803 29.577 C 283.932 29.577,284.038 29.782,284.038 30.033 C 284.038 30.284,284.143 30.554,284.272 30.634 C 284.401 30.714,284.507 30.984,284.507 31.235 C 284.507 31.485,284.601 31.690,284.716 31.690 C 284.831 31.690,284.993 31.959,285.075 32.287 C 285.158 32.615,285.328 32.820,285.453 32.742 C 285.578 32.665,285.681 32.766,285.681 32.967 C 285.681 33.169,285.786 33.333,285.915 33.333 C 286.045 33.333,286.150 33.597,286.150 33.920 C 286.150 34.243,286.256 34.507,286.385 34.507 C 286.514 34.507,286.620 34.718,286.620 34.977 C 286.620 35.235,286.714 35.446,286.828 35.446 C 286.943 35.446,287.106 35.816,287.191 36.268 C 287.276 36.719,287.446 37.089,287.569 37.089 C 287.693 37.089,287.793 37.300,287.793 37.559 C 287.793 37.817,287.899 38.028,288.028 38.028 C 288.157 38.028,288.263 38.233,288.263 38.484 C 288.263 38.734,288.369 39.005,288.498 39.085 C 288.627 39.164,288.732 39.423,288.732 39.660 C 288.732 39.897,288.891 40.151,289.085 40.226 C 289.278 40.300,289.437 40.622,289.437 40.941 C 289.437 41.260,289.542 41.587,289.671 41.667 C 289.800 41.746,289.906 42.061,289.906 42.365 C 289.906 42.670,290.008 42.954,290.133 42.997 C 290.258 43.040,290.387 43.418,290.418 43.838 C 290.450 44.258,290.559 44.601,290.660 44.601 C 290.762 44.601,290.845 44.868,290.845 45.195 C 290.845 45.522,291.004 45.850,291.197 45.925 C 291.391 45.999,291.549 46.312,291.549 46.621 C 291.549 46.930,291.655 47.183,291.784 47.183 C 291.913 47.183,292.019 47.658,292.019 48.239 C 292.019 48.820,292.124 49.296,292.254 49.296 C 292.383 49.296,292.488 49.606,292.488 49.986 C 292.488 50.366,292.594 50.742,292.723 50.822 C 292.852 50.901,292.958 51.217,292.958 51.523 C 292.958 51.829,293.116 52.238,293.310 52.431 C 293.508 52.629,293.662 53.203,293.662 53.739 C 293.662 54.265,293.768 54.695,293.897 54.695 C 294.026 54.695,294.131 55.176,294.131 55.765 C 294.131 56.419,294.223 56.779,294.366 56.690 C 294.511 56.601,294.601 57.001,294.601 57.733 C 294.601 58.632,294.686 58.920,294.953 58.920 C 295.199 58.920,295.305 59.168,295.305 59.742 C 295.305 60.473,295.373 60.563,295.923 60.563 C 296.325 60.563,296.811 60.276,297.316 59.742 C 297.742 59.290,298.256 58.920,298.458 58.920 C 298.661 58.920,298.826 58.836,298.826 58.733 C 298.826 58.629,299.196 58.411,299.648 58.248 C 300.100 58.085,300.469 57.799,300.469 57.614 C 300.469 57.411,300.703 57.277,301.056 57.277 C 301.379 57.277,301.643 57.171,301.643 57.042 C 301.643 56.913,301.901 56.808,302.216 56.808 C 302.531 56.808,302.854 56.702,302.934 56.573 C 303.014 56.444,303.337 56.338,303.652 56.338 C 304.005 56.338,304.225 56.203,304.225 55.986 C 304.225 55.740,304.473 55.634,305.047 55.634 C 305.499 55.634,305.869 55.528,305.869 55.399 C 305.869 55.270,306.390 55.164,307.028 55.164 C 307.666 55.164,308.254 55.059,308.333 54.930 C 308.530 54.611,318.075 54.611,318.075 54.930 C 318.075 55.059,318.603 55.164,319.249 55.164 C 319.894 55.164,320.423 55.270,320.423 55.399 C 320.423 55.528,320.727 55.634,321.098 55.634 C 321.470 55.634,321.905 55.792,322.066 55.986 C 322.226 56.180,322.603 56.338,322.902 56.338 C 323.202 56.338,323.512 56.444,323.592 56.573 C 323.671 56.702,323.942 56.808,324.192 56.808 C 324.443 56.808,324.648 56.913,324.648 57.042 C 324.648 57.171,324.846 57.277,325.089 57.277 C 325.331 57.277,325.661 57.435,325.822 57.629 C 325.982 57.823,326.259 57.981,326.437 57.981 C 326.615 57.981,326.761 58.087,326.761 58.216 C 326.761 58.345,326.949 58.451,327.178 58.451 C 327.408 58.451,327.748 58.662,327.934 58.920 C 328.120 59.178,328.396 59.390,328.548 59.390 C 328.699 59.390,328.884 59.548,328.958 59.742 C 329.032 59.935,329.234 60.094,329.407 60.094 C 329.799 60.094,331.455 61.590,331.455 61.945 C 331.455 62.089,331.535 62.207,331.631 62.207 C 332.020 62.207,333.127 63.370,333.160 63.813 C 333.180 64.074,333.280 64.235,333.382 64.172 C 333.484 64.109,333.568 64.176,333.568 64.322 C 333.568 64.658,334.159 65.258,334.490 65.258 C 334.629 65.258,334.742 65.522,334.742 65.845 C 334.742 66.168,334.828 66.432,334.933 66.432 C 335.038 66.432,335.269 66.802,335.446 67.254 C 335.623 67.705,335.907 68.075,336.077 68.075 C 336.246 68.075,336.385 68.286,336.385 68.545 C 336.385 68.803,336.491 69.014,336.620 69.014 C 336.749 69.014,336.854 69.384,336.854 69.836 C 336.854 70.288,336.960 70.657,337.089 70.657 C 337.218 70.657,337.324 70.921,337.324 71.244 C 337.324 71.567,337.430 71.831,337.559 71.831 C 337.688 71.831,337.793 72.098,337.793 72.425 C 337.793 72.752,337.952 73.080,338.146 73.155 C 338.384 73.246,338.498 73.619,338.498 74.307 C 338.498 74.867,338.603 75.390,338.732 75.469 C 338.862 75.549,338.967 76.115,338.967 76.727 C 338.967 77.340,339.067 77.941,339.189 78.063 C 339.311 78.186,339.431 79.211,339.456 80.340 C 339.480 81.470,339.592 82.394,339.703 82.394 C 339.816 82.394,339.906 100.656,339.906 123.709 C 339.906 160.276,339.947 165.023,340.258 165.023 C 340.490 165.023,340.610 165.255,340.610 165.698 C 340.610 166.470,343.729 169.953,344.420 169.953 C 344.633 169.953,344.873 170.059,344.953 170.188 C 345.048 170.342,353.719 170.423,370.202 170.423 C 386.781 170.423,395.305 170.343,395.305 170.188 C 395.305 170.059,395.569 169.953,395.892 169.953 C 396.215 169.953,396.479 169.847,396.479 169.718 C 396.479 169.589,396.641 169.484,396.838 169.484 C 397.036 169.484,397.259 169.325,397.333 169.131 C 397.407 168.938,397.570 168.779,397.694 168.779 C 397.948 168.779,398.592 168.190,398.592 167.958 C 398.592 167.875,398.724 167.660,398.885 167.480 C 399.947 166.295,399.883 169.449,399.883 118.738 C 399.883 80.981,399.822 71.090,399.589 70.857 C 399.418 70.686,399.296 69.964,399.296 69.129 C 399.296 68.232,399.167 67.525,398.951 67.240 C 398.736 66.955,398.604 66.233,398.599 65.317 C 398.595 64.500,398.487 63.850,398.357 63.850 C 398.228 63.850,398.122 63.374,398.122 62.793 C 398.122 62.212,398.016 61.737,397.887 61.737 C 397.758 61.737,397.653 61.215,397.653 60.577 C 397.653 59.939,397.561 59.361,397.449 59.292 C 397.337 59.222,397.189 58.665,397.120 58.053 C 397.051 57.441,396.879 56.902,396.737 56.854 C 396.595 56.807,396.479 56.407,396.479 55.966 C 396.479 55.525,396.373 55.164,396.244 55.164 C 396.115 55.164,396.009 54.801,396.009 54.357 C 396.009 53.912,395.904 53.484,395.775 53.404 C 395.646 53.324,395.540 52.961,395.540 52.597 C 395.540 52.233,395.381 51.804,395.188 51.643 C 394.994 51.482,394.836 51.047,394.836 50.675 C 394.836 50.304,394.730 50.000,394.601 50.000 C 394.472 50.000,394.366 49.734,394.366 49.410 C 394.366 49.085,394.273 48.636,394.159 48.412 C 394.045 48.188,393.824 47.688,393.668 47.300 C 393.512 46.913,393.235 46.297,393.053 45.932 C 392.872 45.566,392.723 45.117,392.723 44.934 C 392.723 44.751,392.617 44.601,392.488 44.601 C 392.359 44.601,392.254 44.337,392.254 44.014 C 392.254 43.691,392.167 43.427,392.061 43.427 C 391.955 43.427,391.722 42.887,391.542 42.227 C 391.362 41.567,391.079 40.975,390.913 40.911 C 390.746 40.847,390.610 40.536,390.610 40.219 C 390.610 39.895,390.508 39.707,390.376 39.789 C 390.242 39.871,390.141 39.674,390.141 39.333 C 390.141 39.003,390.035 38.732,389.906 38.732 C 389.777 38.732,389.671 38.587,389.671 38.409 C 389.671 38.231,389.513 37.954,389.319 37.793 C 389.126 37.633,388.967 37.303,388.967 37.060 C 388.967 36.818,388.862 36.620,388.732 36.620 C 388.603 36.620,388.498 36.461,388.498 36.268 C 388.498 36.074,388.392 35.915,388.263 35.915 C 388.134 35.915,388.028 35.704,388.028 35.446 C 388.028 35.188,387.923 34.977,387.793 34.977 C 387.664 34.977,387.559 34.843,387.559 34.681 C 387.559 34.518,387.295 34.100,386.972 33.752 C 386.649 33.404,386.385 32.956,386.385 32.757 C 386.385 32.557,386.279 32.394,386.150 32.394 C 386.021 32.394,385.912 32.210,385.908 31.984 C 385.899 31.476,385.370 30.751,385.009 30.751 C 384.862 30.751,384.742 30.481,384.742 30.150 C 384.742 29.810,384.640 29.613,384.507 29.695 C 384.378 29.775,384.272 29.721,384.272 29.575 C 384.272 29.238,383.681 28.638,383.350 28.638 C 383.212 28.638,383.099 28.427,383.099 28.169 C 383.099 27.911,382.993 27.700,382.864 27.700 C 382.735 27.700,382.629 27.580,382.629 27.434 C 382.629 27.287,382.442 26.997,382.212 26.788 C 381.983 26.579,381.606 26.111,381.375 25.747 C 380.817 24.869,380.262 24.194,379.720 23.734 C 378.822 22.971,377.934 21.990,377.934 21.760 C 377.934 21.630,377.512 21.135,376.997 20.659 C 376.481 20.183,376.129 19.724,376.214 19.638 C 376.300 19.553,376.252 19.484,376.108 19.484 C 375.964 19.484,375.563 19.221,375.217 18.901 C 374.872 18.581,374.496 18.376,374.384 18.445 C 374.271 18.515,374.178 18.453,374.178 18.307 C 374.178 18.030,373.609 17.371,373.370 17.371 C 373.294 17.371,372.776 16.896,372.219 16.315 C 371.663 15.734,371.078 15.258,370.921 15.258 C 370.763 15.258,370.253 14.888,369.788 14.437 C 369.323 13.985,368.846 13.615,368.728 13.615 C 368.610 13.615,368.164 13.245,367.738 12.793 C 367.312 12.342,366.817 11.969,366.639 11.967 C 366.461 11.964,366.050 11.755,365.728 11.502 C 365.405 11.250,365.009 11.041,364.847 11.038 C 364.686 11.035,364.554 10.874,364.554 10.681 C 364.554 10.471,364.338 10.329,364.019 10.329 C 363.725 10.329,363.332 10.117,363.146 9.859 C 362.959 9.601,362.625 9.390,362.403 9.390 C 362.181 9.390,361.934 9.284,361.854 9.155 C 361.775 9.026,361.504 8.920,361.254 8.920 C 361.003 8.920,360.798 8.762,360.798 8.568 C 360.798 8.349,360.576 8.216,360.211 8.216 C 359.888 8.216,359.624 8.110,359.624 7.981 C 359.624 7.852,359.413 7.746,359.155 7.746 C 358.897 7.746,358.685 7.641,358.685 7.512 C 358.685 7.383,358.433 7.277,358.124 7.277 C 357.815 7.277,357.501 7.119,357.427 6.925 C 357.353 6.731,357.130 6.573,356.932 6.573 C 356.735 6.573,356.573 6.490,356.573 6.388 C 356.573 6.286,356.229 6.177,355.810 6.146 C 355.390 6.114,355.012 5.986,354.969 5.861 C 354.926 5.736,354.635 5.634,354.323 5.634 C 354.011 5.634,353.756 5.528,353.756 5.399 C 353.756 5.270,353.450 5.164,353.077 5.164 C 352.690 5.164,352.340 5.013,352.263 4.812 C 352.188 4.619,351.913 4.460,351.651 4.460 C 351.388 4.460,351.174 4.354,351.174 4.225 C 351.174 4.096,350.810 3.991,350.366 3.991 C 349.922 3.991,349.493 3.885,349.413 3.756 C 349.333 3.627,348.852 3.521,348.343 3.521 C 347.834 3.521,347.418 3.415,347.418 3.286 C 347.418 3.157,347.048 3.052,346.596 3.052 C 346.022 3.052,345.775 2.945,345.775 2.700 C 345.775 2.439,345.502 2.347,344.732 2.347 C 344.159 2.347,343.624 2.242,343.545 2.113 C 343.465 1.984,342.878 1.878,342.240 1.878 C 341.602 1.878,341.080 1.772,341.080 1.643 C 341.080 1.514,340.491 1.408,339.772 1.408 C 338.922 1.408,338.341 1.285,338.112 1.056 C 337.860 0.804,337.245 0.704,335.946 0.704 C 334.948 0.704,334.031 0.611,333.908 0.498 C 333.658 0.267,322.831 0.049,317.611 0.170 " stroke="none" fill="#7cbc24" fill-rule="evenodd"></path><path id="path1" d="M88.741 0.158 C 87.390 0.210,86.222 0.354,86.145 0.478 C 86.068 0.603,85.397 0.718,84.655 0.736 C 83.864 0.754,83.171 0.900,82.984 1.088 C 82.807 1.264,82.233 1.408,81.707 1.408 C 81.181 1.408,80.751 1.514,80.751 1.643 C 80.751 1.772,80.276 1.878,79.695 1.878 C 79.114 1.878,78.638 1.984,78.638 2.113 C 78.638 2.242,78.163 2.347,77.582 2.347 C 76.800 2.347,76.526 2.439,76.526 2.700 C 76.526 2.945,76.278 3.052,75.704 3.052 C 75.252 3.052,74.883 3.157,74.883 3.286 C 74.883 3.415,74.572 3.521,74.192 3.521 C 73.813 3.521,73.437 3.627,73.357 3.756 C 73.277 3.885,72.901 3.991,72.521 3.991 C 72.142 3.991,71.831 4.096,71.831 4.225 C 71.831 4.354,71.567 4.460,71.244 4.460 C 70.879 4.460,70.657 4.593,70.657 4.812 C 70.657 5.058,70.409 5.164,69.836 5.164 C 69.384 5.164,69.014 5.270,69.014 5.399 C 69.014 5.528,68.803 5.634,68.545 5.634 C 68.286 5.634,68.075 5.739,68.075 5.869 C 68.075 5.998,67.856 6.103,67.589 6.103 C 67.321 6.103,66.943 6.263,66.748 6.458 C 66.553 6.652,66.297 6.752,66.178 6.678 C 66.060 6.605,65.962 6.710,65.962 6.911 C 65.962 7.145,65.751 7.277,65.376 7.277 C 65.053 7.277,64.789 7.383,64.789 7.512 C 64.789 7.641,64.577 7.746,64.319 7.746 C 64.061 7.746,63.850 7.852,63.850 7.981 C 63.850 8.110,63.586 8.216,63.263 8.216 C 62.898 8.216,62.676 8.349,62.676 8.568 C 62.676 8.787,62.454 8.920,62.089 8.920 C 61.766 8.920,61.502 9.026,61.502 9.155 C 61.502 9.284,61.291 9.390,61.033 9.390 C 60.775 9.390,60.563 9.495,60.563 9.624 C 60.563 9.754,60.379 9.863,60.153 9.867 C 59.645 9.876,58.920 10.405,58.920 10.765 C 58.920 10.912,58.709 11.033,58.451 11.033 C 58.192 11.033,57.981 11.138,57.981 11.268 C 57.981 11.397,57.823 11.502,57.629 11.502 C 57.435 11.502,57.277 11.608,57.277 11.737 C 57.277 11.866,57.114 11.972,56.914 11.972 C 56.714 11.972,56.306 12.236,56.006 12.559 C 55.707 12.881,55.313 13.146,55.131 13.146 C 54.948 13.146,54.646 13.357,54.460 13.615 C 54.274 13.873,53.959 14.085,53.760 14.085 C 53.562 14.085,53.083 14.452,52.697 14.901 C 52.311 15.350,51.803 15.720,51.568 15.723 C 51.096 15.728,50.469 16.257,50.469 16.650 C 50.469 16.788,50.305 16.901,50.104 16.901 C 49.902 16.901,49.803 17.007,49.883 17.136 C 49.962 17.265,49.805 17.371,49.533 17.371 C 49.031 17.371,46.244 19.951,46.244 20.415 C 46.244 20.548,46.026 20.657,45.759 20.657 C 45.473 20.657,44.658 21.283,43.771 22.183 C 42.944 23.022,42.170 23.709,42.051 23.709 C 41.932 23.709,41.774 23.866,41.701 24.057 C 41.477 24.639,40.845 24.189,40.845 23.449 C 40.845 23.076,40.739 22.770,40.610 22.770 C 40.481 22.770,40.376 22.555,40.376 22.293 C 40.376 22.031,40.217 21.755,40.023 21.681 C 39.830 21.607,39.671 21.346,39.671 21.102 C 39.671 20.857,39.566 20.657,39.437 20.657 C 39.308 20.657,39.202 20.288,39.202 19.836 C 39.202 19.384,39.096 19.014,38.967 19.014 C 38.838 19.014,38.732 18.750,38.732 18.427 C 38.732 18.062,38.599 17.840,38.380 17.840 C 38.134 17.840,38.028 17.593,38.028 17.019 C 38.028 16.567,37.923 16.197,37.793 16.197 C 37.664 16.197,37.559 15.986,37.559 15.728 C 37.559 15.469,37.453 15.258,37.324 15.258 C 37.195 15.258,37.089 14.888,37.089 14.437 C 37.089 13.985,36.984 13.615,36.854 13.615 C 36.725 13.615,36.620 13.400,36.620 13.138 C 36.620 12.876,36.461 12.601,36.268 12.526 C 36.074 12.452,35.915 12.191,35.915 11.947 C 35.915 11.702,35.810 11.502,35.681 11.502 C 35.552 11.502,35.446 11.133,35.446 10.681 C 35.446 10.229,35.340 9.859,35.211 9.859 C 35.082 9.859,34.977 9.657,34.977 9.409 C 34.977 9.162,34.865 8.922,34.729 8.877 C 34.593 8.831,34.455 8.615,34.423 8.397 C 34.391 8.178,34.133 7.798,33.849 7.552 C 33.565 7.306,33.333 7.030,33.333 6.939 C 33.333 6.708,32.704 6.103,32.463 6.103 C 32.353 6.103,32.111 5.892,31.925 5.634 C 31.739 5.376,31.410 5.164,31.194 5.164 C 30.978 5.164,30.741 5.006,30.666 4.812 C 30.592 4.619,30.317 4.460,30.054 4.460 C 29.792 4.460,29.577 4.354,29.577 4.225 C 29.577 4.072,25.352 3.991,17.371 3.991 C 9.390 3.991,5.164 4.072,5.164 4.225 C 5.164 4.354,4.862 4.460,4.493 4.460 C 4.051 4.460,3.671 4.661,3.381 5.047 C 3.139 5.370,2.746 5.634,2.510 5.634 C 1.937 5.634,1.408 6.189,1.408 6.791 C 1.408 7.058,1.295 7.277,1.157 7.277 C 0.048 7.277,0.117 1.943,0.117 87.207 C 0.117 172.470,0.048 167.136,1.157 167.136 C 1.295 167.136,1.408 167.355,1.408 167.622 C 1.408 168.245,1.943 168.779,2.565 168.779 C 2.833 168.779,3.052 168.893,3.052 169.031 C 3.052 169.400,3.667 169.953,4.077 169.953 C 4.273 169.953,4.498 170.059,4.577 170.188 C 4.778 170.512,54.695 170.512,54.695 170.188 C 54.695 170.059,54.906 169.953,55.164 169.953 C 55.423 169.953,55.634 169.847,55.634 169.718 C 55.634 169.589,55.792 169.484,55.986 169.484 C 56.180 169.484,56.338 169.325,56.338 169.131 C 56.338 168.938,56.510 168.779,56.721 168.779 C 57.140 168.779,57.981 167.928,57.981 167.504 C 57.981 167.359,58.192 167.088,58.451 166.901 C 58.709 166.715,58.920 166.375,58.920 166.145 C 58.920 165.916,59.026 165.728,59.155 165.728 C 59.284 165.728,59.390 165.369,59.390 164.931 C 59.390 164.440,59.525 164.083,59.742 164.000 C 60.053 163.880,60.094 158.887,60.094 121.017 C 60.094 92.608,60.173 78.169,60.329 78.169 C 60.459 78.169,60.563 77.543,60.563 76.761 C 60.563 75.978,60.668 75.352,60.798 75.352 C 60.927 75.352,61.033 74.877,61.033 74.296 C 61.033 73.715,61.138 73.239,61.268 73.239 C 61.397 73.239,61.502 72.923,61.502 72.535 C 61.502 72.066,61.620 71.831,61.854 71.831 C 62.074 71.831,62.207 71.609,62.207 71.244 C 62.207 70.921,62.312 70.657,62.441 70.657 C 62.570 70.657,62.676 70.452,62.676 70.202 C 62.676 69.951,62.782 69.681,62.911 69.601 C 63.040 69.521,63.146 69.251,63.146 69.000 C 63.146 68.738,63.306 68.545,63.523 68.545 C 63.758 68.545,63.850 68.415,63.767 68.199 C 63.695 68.009,63.789 67.700,63.977 67.512 C 64.165 67.324,64.319 67.050,64.319 66.904 C 64.319 66.758,64.425 66.704,64.554 66.784 C 64.683 66.864,64.789 66.712,64.789 66.446 C 64.789 66.180,64.894 65.962,65.023 65.962 C 65.153 65.962,65.258 65.804,65.258 65.610 C 65.258 65.417,65.371 65.258,65.510 65.258 C 65.884 65.258,66.432 64.640,66.432 64.219 C 66.432 64.016,66.538 63.850,66.667 63.850 C 66.796 63.850,66.901 63.737,66.901 63.598 C 66.901 63.325,67.479 62.676,67.723 62.676 C 67.916 62.676,68.545 62.052,68.545 61.861 C 68.545 61.555,69.715 60.563,70.077 60.563 C 70.507 60.563,71.127 60.019,71.127 59.641 C 71.127 59.503,71.285 59.390,71.479 59.390 C 71.673 59.390,71.831 59.284,71.831 59.155 C 71.831 59.026,72.042 58.920,72.300 58.920 C 72.559 58.920,72.770 58.815,72.770 58.685 C 72.770 58.556,72.920 58.451,73.103 58.451 C 73.522 58.451,74.879 57.689,74.881 57.453 C 74.882 57.356,75.147 57.277,75.469 57.277 C 75.792 57.277,76.056 57.171,76.056 57.042 C 76.056 56.913,76.268 56.808,76.526 56.808 C 76.784 56.808,76.995 56.702,76.995 56.573 C 76.995 56.444,77.259 56.338,77.582 56.338 C 77.947 56.338,78.169 56.205,78.169 55.986 C 78.169 55.726,78.441 55.634,79.206 55.634 C 79.776 55.634,80.278 55.533,80.321 55.411 C 80.364 55.288,80.848 55.162,81.397 55.130 C 81.945 55.098,82.394 54.988,82.394 54.884 C 82.394 54.780,83.134 54.695,84.038 54.695 C 84.977 54.695,85.681 54.594,85.681 54.460 C 85.681 54.318,86.698 54.225,88.263 54.225 C 89.828 54.225,90.845 54.318,90.845 54.460 C 90.845 54.594,91.549 54.695,92.488 54.695 C 93.427 54.695,94.131 54.795,94.131 54.930 C 94.131 55.059,94.607 55.164,95.188 55.164 C 95.769 55.164,96.244 55.270,96.244 55.399 C 96.244 55.528,96.614 55.634,97.066 55.634 C 97.640 55.634,97.887 55.740,97.887 55.986 C 97.887 56.205,98.109 56.338,98.474 56.338 C 98.797 56.338,99.061 56.444,99.061 56.573 C 99.061 56.702,99.272 56.808,99.531 56.808 C 99.789 56.808,100.000 56.913,100.000 57.042 C 100.000 57.171,100.264 57.277,100.587 57.277 C 100.910 57.277,101.174 57.386,101.174 57.519 C 101.174 57.652,101.359 57.832,101.585 57.918 C 101.810 58.004,102.200 58.265,102.450 58.498 C 102.701 58.730,103.052 58.920,103.230 58.920 C 103.615 58.920,104.225 59.486,104.225 59.842 C 104.225 59.981,104.310 60.094,104.414 60.094 C 104.715 60.094,106.338 61.656,106.338 61.945 C 106.338 62.089,106.451 62.207,106.590 62.207 C 106.964 62.207,107.512 62.825,107.512 63.246 C 107.512 63.449,107.617 63.615,107.746 63.615 C 107.876 63.615,107.981 63.773,107.981 63.967 C 107.981 64.161,108.087 64.319,108.216 64.319 C 108.345 64.319,108.451 64.481,108.451 64.679 C 108.451 64.876,108.609 65.099,108.803 65.173 C 108.996 65.248,109.155 65.456,109.155 65.635 C 109.155 65.815,109.261 65.962,109.390 65.962 C 109.519 65.962,109.624 66.174,109.624 66.432 C 109.624 66.690,109.730 66.901,109.859 66.901 C 109.988 66.901,110.094 67.154,110.094 67.463 C 110.094 67.772,110.251 68.085,110.442 68.158 C 110.640 68.235,110.731 68.448,110.652 68.653 C 110.562 68.886,110.647 69.014,110.890 69.014 C 111.165 69.014,111.268 69.238,111.268 69.836 C 111.268 70.288,111.373 70.657,111.502 70.657 C 111.631 70.657,111.737 71.027,111.737 71.479 C 111.737 71.931,111.843 72.300,111.972 72.300 C 112.101 72.300,112.207 72.670,112.207 73.122 C 112.207 73.696,112.313 73.944,112.559 73.944 C 112.829 73.944,112.911 74.244,112.911 75.235 C 112.911 75.945,113.016 76.526,113.146 76.526 C 113.282 76.526,113.380 77.308,113.380 78.404 C 113.380 79.499,113.478 80.282,113.615 80.282 C 113.771 80.282,113.850 94.562,113.850 122.653 C 113.850 150.743,113.929 165.023,114.085 165.023 C 114.214 165.023,114.319 165.288,114.319 165.610 C 114.319 165.975,114.452 166.197,114.671 166.197 C 114.867 166.197,115.023 166.406,115.023 166.667 C 115.023 166.925,115.129 167.136,115.258 167.136 C 115.387 167.136,115.493 167.249,115.493 167.388 C 115.493 167.719,116.093 168.310,116.429 168.310 C 116.575 168.310,116.629 168.415,116.549 168.545 C 116.470 168.674,116.569 168.779,116.770 168.779 C 116.971 168.779,117.136 168.893,117.136 169.031 C 117.136 169.507,117.809 169.953,118.528 169.953 C 118.924 169.953,119.249 170.059,119.249 170.188 C 119.249 170.343,127.034 170.423,142.136 170.423 C 157.238 170.423,165.023 170.343,165.023 170.188 C 165.023 170.059,165.288 169.953,165.610 169.953 C 165.933 169.953,166.197 169.847,166.197 169.718 C 166.197 169.589,166.408 169.484,166.667 169.484 C 166.927 169.484,167.136 169.327,167.136 169.131 C 167.136 168.938,167.301 168.779,167.502 168.779 C 167.703 168.779,167.803 168.674,167.723 168.545 C 167.643 168.415,167.697 168.310,167.843 168.310 C 168.180 168.310,168.779 167.719,168.779 167.388 C 168.779 167.249,168.885 167.136,169.014 167.136 C 169.143 167.136,169.249 166.925,169.249 166.667 C 169.249 166.406,169.405 166.197,169.601 166.197 C 169.847 166.197,169.953 165.949,169.953 165.376 C 169.953 164.924,170.059 164.554,170.188 164.554 C 170.343 164.554,170.423 150.000,170.423 121.362 C 170.423 92.723,170.502 78.169,170.657 78.169 C 170.786 78.169,170.892 77.588,170.892 76.878 C 170.892 76.168,170.998 75.587,171.127 75.587 C 171.256 75.587,171.362 75.228,171.362 74.790 C 171.362 74.299,171.496 73.942,171.714 73.859 C 171.919 73.780,172.066 73.428,172.066 73.012 C 172.066 72.621,172.171 72.300,172.300 72.300 C 172.430 72.300,172.535 72.036,172.535 71.714 C 172.535 71.391,172.641 71.127,172.770 71.127 C 172.899 71.127,173.005 70.821,173.005 70.448 C 173.005 70.061,173.156 69.710,173.357 69.633 C 173.550 69.559,173.709 69.307,173.709 69.073 C 173.709 68.840,173.920 68.496,174.178 68.310 C 174.437 68.124,174.648 67.756,174.648 67.492 C 174.648 67.229,174.912 66.815,175.235 66.572 C 175.558 66.330,175.822 65.984,175.822 65.805 C 175.822 65.431,181.080 60.094,181.448 60.094 C 181.581 60.094,181.690 59.935,181.690 59.742 C 181.690 59.548,181.878 59.390,182.108 59.390 C 182.338 59.390,182.678 59.178,182.864 58.920 C 183.050 58.662,183.443 58.451,183.737 58.451 C 184.032 58.451,184.272 58.345,184.272 58.216 C 184.272 58.087,184.419 57.981,184.599 57.981 C 184.779 57.981,184.987 57.823,185.061 57.629 C 185.136 57.435,185.464 57.277,185.791 57.277 C 186.118 57.277,186.385 57.171,186.385 57.042 C 186.385 56.913,186.590 56.808,186.841 56.808 C 187.091 56.808,187.362 56.702,187.441 56.573 C 187.521 56.444,187.791 56.338,188.042 56.338 C 188.293 56.338,188.498 56.180,188.498 55.986 C 188.498 55.740,188.745 55.634,189.319 55.634 C 189.771 55.634,190.141 55.528,190.141 55.399 C 190.141 55.270,190.616 55.164,191.197 55.164 C 191.778 55.164,192.254 55.059,192.254 54.930 C 192.254 54.795,192.958 54.695,193.897 54.695 C 194.836 54.695,195.540 54.594,195.540 54.460 C 195.540 54.319,196.479 54.225,197.887 54.225 C 199.296 54.225,200.235 54.319,200.235 54.460 C 200.235 54.597,201.017 54.695,202.113 54.695 C 203.208 54.695,203.991 54.793,203.991 54.930 C 203.991 55.059,204.466 55.164,205.047 55.164 C 205.628 55.164,206.103 55.270,206.103 55.399 C 206.103 55.528,206.473 55.634,206.925 55.634 C 207.499 55.634,207.746 55.740,207.746 55.986 C 207.746 56.205,207.968 56.338,208.333 56.338 C 208.656 56.338,208.920 56.444,208.920 56.573 C 208.920 56.702,209.131 56.808,209.390 56.808 C 209.648 56.808,209.859 56.913,209.859 57.042 C 209.859 57.171,210.123 57.277,210.446 57.277 C 210.811 57.277,211.033 57.410,211.033 57.629 C 211.033 57.823,211.196 57.981,211.395 57.981 C 211.594 57.981,211.983 58.192,212.261 58.451 C 212.538 58.709,212.910 58.920,213.088 58.920 C 213.266 58.920,213.760 59.290,214.187 59.742 C 214.613 60.194,215.111 60.563,215.293 60.563 C 215.475 60.563,215.776 60.775,215.962 61.033 C 216.149 61.291,216.436 61.502,216.601 61.502 C 216.766 61.502,216.901 61.661,216.901 61.854 C 216.901 62.048,217.007 62.207,217.136 62.207 C 217.265 62.207,217.371 62.379,217.371 62.590 C 217.371 62.802,217.628 63.213,217.943 63.505 C 218.258 63.797,218.452 64.099,218.374 64.177 C 218.296 64.255,218.408 64.319,218.623 64.319 C 218.858 64.319,219.014 64.507,219.014 64.789 C 219.014 65.047,219.120 65.258,219.249 65.258 C 219.378 65.258,219.484 65.417,219.484 65.610 C 219.484 65.804,219.589 65.962,219.718 65.962 C 219.847 65.962,219.953 66.174,219.953 66.432 C 219.953 66.690,220.052 66.901,220.172 66.901 C 220.292 66.901,220.466 67.139,220.558 67.430 C 220.649 67.720,220.921 68.129,221.160 68.337 C 221.411 68.556,221.596 69.029,221.596 69.452 C 221.596 69.857,221.702 70.188,221.831 70.188 C 221.960 70.188,222.066 70.399,222.066 70.657 C 222.066 70.918,222.222 71.127,222.418 71.127 C 222.664 71.127,222.770 71.375,222.770 71.948 C 222.770 72.400,222.876 72.770,223.005 72.770 C 223.134 72.770,223.239 73.140,223.239 73.592 C 223.239 74.043,223.345 74.413,223.474 74.413 C 223.603 74.413,223.709 74.985,223.709 75.685 C 223.709 76.384,223.808 76.991,223.929 77.034 C 224.050 77.077,224.182 77.825,224.223 78.696 C 224.272 79.766,224.391 80.280,224.589 80.280 C 224.823 80.281,224.883 88.866,224.883 122.418 C 224.883 150.352,224.962 164.554,225.117 164.554 C 225.246 164.554,225.352 164.924,225.352 165.376 C 225.352 165.827,225.458 166.197,225.587 166.197 C 225.716 166.197,225.822 166.360,225.822 166.559 C 225.822 167.038,228.258 169.484,228.735 169.484 C 228.940 169.484,229.108 169.589,229.108 169.718 C 229.108 169.847,229.378 169.953,229.709 169.953 C 230.049 169.953,230.247 170.055,230.164 170.188 C 230.068 170.344,238.456 170.423,255.150 170.423 C 271.748 170.423,280.282 170.343,280.282 170.188 C 280.282 170.059,280.493 169.953,280.751 169.953 C 281.009 169.953,281.221 169.847,281.221 169.718 C 281.221 169.589,281.390 169.484,281.596 169.484 C 281.803 169.484,282.342 169.114,282.793 168.662 C 283.245 168.210,283.710 167.840,283.826 167.840 C 283.942 167.840,284.038 167.600,284.038 167.305 C 284.038 167.011,284.249 166.618,284.507 166.432 C 284.851 166.184,284.977 165.824,284.977 165.089 C 284.977 164.353,285.071 164.085,285.329 164.085 C 285.640 164.085,285.681 159.311,285.681 122.528 C 285.681 85.805,285.640 80.955,285.329 80.836 C 285.038 80.725,284.977 80.109,284.977 77.322 C 284.977 75.226,284.887 73.944,284.742 73.944 C 284.603 73.944,284.507 73.083,284.507 71.831 C 284.507 70.579,284.411 69.718,284.272 69.718 C 284.135 69.718,284.038 68.936,284.038 67.840 C 284.038 66.745,283.940 65.962,283.803 65.962 C 283.674 65.962,283.568 65.378,283.568 64.664 C 283.568 63.726,283.470 63.328,283.216 63.230 C 282.963 63.133,282.864 62.738,282.864 61.829 C 282.864 61.133,282.758 60.563,282.629 60.563 C 282.500 60.563,282.394 60.088,282.394 59.507 C 282.394 58.926,282.289 58.451,282.160 58.451 C 282.031 58.451,281.925 57.975,281.925 57.394 C 281.925 56.612,281.834 56.338,281.573 56.338 C 281.312 56.338,281.221 56.064,281.221 55.282 C 281.221 54.701,281.115 54.225,280.986 54.225 C 280.857 54.225,280.751 53.856,280.751 53.404 C 280.751 52.952,280.646 52.582,280.516 52.582 C 280.387 52.582,280.282 52.212,280.282 51.761 C 280.282 51.309,280.176 50.939,280.047 50.939 C 279.918 50.939,279.812 50.619,279.812 50.227 C 279.812 49.811,279.666 49.460,279.460 49.381 C 279.262 49.305,279.108 48.955,279.108 48.580 C 279.108 48.214,279.002 47.850,278.873 47.770 C 278.744 47.690,278.638 47.420,278.638 47.169 C 278.638 46.919,278.533 46.714,278.404 46.714 C 278.275 46.714,278.169 46.403,278.169 46.023 C 278.169 45.644,278.063 45.268,277.934 45.188 C 277.805 45.108,277.700 44.838,277.700 44.587 C 277.700 44.336,277.541 44.131,277.347 44.131 C 277.128 44.131,276.995 43.910,276.995 43.545 C 276.995 43.222,276.890 42.958,276.761 42.958 C 276.631 42.958,276.526 42.588,276.526 42.136 C 276.526 41.684,276.420 41.315,276.291 41.315 C 276.162 41.315,276.056 41.103,276.056 40.845 C 276.056 40.584,275.900 40.376,275.704 40.376 C 275.485 40.376,275.352 40.154,275.352 39.789 C 275.352 39.466,275.246 39.202,275.117 39.202 C 274.988 39.202,274.883 38.991,274.883 38.732 C 274.883 38.474,274.777 38.263,274.648 38.263 C 274.519 38.263,274.413 38.044,274.413 37.777 C 274.413 37.257,273.905 36.620,273.491 36.620 C 273.353 36.620,273.239 36.356,273.239 36.033 C 273.239 35.710,273.134 35.446,273.005 35.446 C 272.876 35.446,272.770 35.235,272.770 34.977 C 272.770 34.718,272.664 34.507,272.535 34.507 C 272.406 34.507,272.297 34.322,272.293 34.096 C 272.284 33.589,271.755 32.864,271.394 32.864 C 271.247 32.864,271.127 32.623,271.127 32.329 C 271.127 32.035,270.915 31.642,270.657 31.455 C 270.399 31.269,270.188 30.944,270.188 30.732 C 270.188 30.521,269.924 30.149,269.601 29.907 C 269.278 29.664,269.014 29.280,269.014 29.052 C 269.014 28.825,268.908 28.638,268.779 28.638 C 268.650 28.638,268.545 28.525,268.545 28.387 C 268.545 28.062,267.947 27.465,267.622 27.465 C 267.484 27.465,267.371 27.254,267.371 26.995 C 267.371 26.737,267.265 26.526,267.136 26.526 C 267.007 26.526,266.901 26.415,266.901 26.280 C 266.901 25.962,265.822 24.883,265.504 24.883 C 265.369 24.883,265.258 24.668,265.258 24.405 C 265.258 23.918,262.202 20.657,261.745 20.657 C 261.612 20.657,261.502 20.548,261.502 20.415 C 261.502 20.100,259.811 18.409,259.572 18.486 C 259.472 18.518,259.390 18.434,259.390 18.299 C 259.390 17.981,258.311 16.901,257.992 16.901 C 257.857 16.901,257.746 16.788,257.746 16.650 C 257.746 16.276,257.129 15.728,256.707 15.728 C 256.504 15.728,256.338 15.622,256.338 15.493 C 256.338 15.364,256.225 15.258,256.087 15.258 C 255.813 15.258,255.164 14.680,255.164 14.437 C 255.164 14.125,254.478 13.615,254.059 13.615 C 253.820 13.615,253.469 13.397,253.280 13.131 C 253.090 12.865,252.591 12.483,252.171 12.283 C 251.752 12.082,251.408 11.825,251.408 11.710 C 251.408 11.596,251.197 11.502,250.939 11.502 C 250.681 11.502,250.469 11.397,250.469 11.268 C 250.469 11.138,250.311 11.033,250.117 11.033 C 249.924 11.033,249.765 10.874,249.765 10.681 C 249.765 10.485,249.557 10.329,249.296 10.329 C 249.038 10.329,248.826 10.223,248.826 10.094 C 248.826 9.965,248.586 9.859,248.291 9.859 C 247.997 9.859,247.604 9.648,247.418 9.390 C 247.232 9.131,246.903 8.920,246.687 8.920 C 246.471 8.920,246.234 8.762,246.159 8.568 C 246.085 8.374,245.810 8.216,245.547 8.216 C 245.285 8.216,245.070 8.110,245.070 7.981 C 245.070 7.852,244.806 7.746,244.484 7.746 C 244.161 7.746,243.897 7.641,243.897 7.512 C 243.897 7.383,243.697 7.277,243.452 7.277 C 243.208 7.277,242.947 7.119,242.873 6.925 C 242.799 6.731,242.523 6.573,242.261 6.573 C 241.999 6.573,241.784 6.467,241.784 6.338 C 241.784 6.209,241.573 6.103,241.315 6.103 C 241.056 6.103,240.845 5.998,240.845 5.869 C 240.845 5.739,240.475 5.634,240.023 5.634 C 239.572 5.634,239.202 5.528,239.202 5.399 C 239.202 5.270,238.938 5.164,238.615 5.164 C 238.250 5.164,238.028 5.031,238.028 4.812 C 238.028 4.579,237.795 4.460,237.338 4.460 C 236.958 4.460,236.582 4.354,236.502 4.225 C 236.423 4.096,236.047 3.991,235.667 3.991 C 235.287 3.991,234.977 3.885,234.977 3.756 C 234.977 3.627,234.607 3.521,234.155 3.521 C 233.703 3.521,233.333 3.415,233.333 3.286 C 233.333 3.157,232.858 3.052,232.277 3.052 C 231.495 3.052,231.221 2.960,231.221 2.700 C 231.221 2.454,230.973 2.347,230.399 2.347 C 229.947 2.347,229.577 2.242,229.577 2.113 C 229.577 1.984,228.996 1.878,228.286 1.878 C 227.576 1.878,226.995 1.772,226.995 1.643 C 226.995 1.513,226.378 1.408,225.612 1.408 C 224.656 1.408,224.190 1.309,224.105 1.086 C 224.018 0.859,223.478 0.754,222.271 0.729 C 221.207 0.707,220.494 0.585,220.383 0.406 C 220.132 -0.001,197.482 -0.015,197.231 0.391 C 197.138 0.542,196.381 0.712,195.549 0.768 C 194.707 0.825,193.997 0.990,193.947 1.139 C 193.898 1.287,193.391 1.408,192.821 1.408 C 192.251 1.408,191.784 1.514,191.784 1.643 C 191.784 1.772,191.203 1.878,190.493 1.878 C 189.783 1.878,189.202 1.984,189.202 2.113 C 189.202 2.242,188.832 2.347,188.380 2.347 C 187.806 2.347,187.559 2.454,187.559 2.700 C 187.559 2.961,187.283 3.052,186.488 3.052 C 185.835 3.052,185.475 3.143,185.563 3.286 C 185.651 3.428,185.331 3.521,184.756 3.521 C 184.232 3.521,183.803 3.627,183.803 3.756 C 183.803 3.885,183.539 3.991,183.216 3.991 C 182.893 3.991,182.629 4.096,182.629 4.225 C 182.629 4.354,182.309 4.460,181.918 4.460 C 181.502 4.460,181.150 4.606,181.071 4.812 C 180.994 5.013,180.644 5.164,180.257 5.164 C 179.883 5.164,179.577 5.270,179.577 5.399 C 179.577 5.528,179.313 5.634,178.991 5.634 C 178.668 5.634,178.404 5.739,178.404 5.869 C 178.404 5.998,178.219 6.107,177.993 6.111 C 177.767 6.115,177.382 6.270,177.137 6.455 C 176.892 6.641,176.601 6.737,176.491 6.669 C 176.381 6.601,176.291 6.710,176.291 6.911 C 176.291 7.145,176.079 7.277,175.704 7.277 C 175.381 7.277,175.117 7.383,175.117 7.512 C 175.117 7.641,174.800 7.746,174.413 7.746 C 174.026 7.746,173.709 7.852,173.709 7.981 C 173.709 8.110,173.550 8.216,173.357 8.216 C 173.163 8.216,173.005 8.374,173.005 8.568 C 173.005 8.764,172.796 8.920,172.535 8.920 C 172.277 8.920,172.066 9.026,172.066 9.155 C 172.066 9.284,171.802 9.390,171.479 9.390 C 171.156 9.390,170.892 9.495,170.892 9.624 C 170.892 9.754,170.681 9.859,170.423 9.859 C 170.164 9.859,169.953 9.965,169.953 10.094 C 169.953 10.223,169.757 10.329,169.516 10.329 C 169.276 10.329,168.882 10.593,168.639 10.915 C 168.397 11.238,167.983 11.502,167.719 11.502 C 167.455 11.502,167.088 11.714,166.901 11.972 C 166.715 12.230,166.386 12.441,166.170 12.441 C 165.955 12.441,165.717 12.600,165.643 12.793 C 165.568 12.987,165.316 13.146,165.083 13.146 C 164.849 13.146,164.505 13.357,164.319 13.615 C 164.133 13.873,163.846 14.085,163.681 14.085 C 163.515 14.085,163.380 14.243,163.380 14.437 C 163.380 14.630,163.192 14.789,162.963 14.789 C 162.733 14.789,162.393 15.000,162.207 15.258 C 162.020 15.516,161.673 15.728,161.434 15.728 C 160.979 15.728,160.329 16.247,160.329 16.610 C 160.329 16.727,160.065 16.963,159.742 17.136 C 159.419 17.309,159.155 17.538,159.155 17.645 C 159.155 17.753,158.998 17.840,158.806 17.840 C 158.355 17.840,157.499 18.570,157.655 18.821 C 157.721 18.927,157.658 19.014,157.515 19.014 C 157.186 19.014,156.103 20.086,156.103 20.412 C 156.103 20.547,155.885 20.657,155.618 20.657 C 155.332 20.657,154.517 21.283,153.630 22.183 C 152.803 23.022,152.011 23.709,151.871 23.709 C 151.730 23.709,151.673 23.802,151.744 23.917 C 151.815 24.031,151.610 24.175,151.288 24.236 C 150.967 24.298,150.704 24.250,150.704 24.129 C 150.704 23.881,150.112 23.239,149.883 23.239 C 149.639 23.239,149.061 22.591,149.061 22.317 C 149.061 22.179,148.955 22.066,148.826 22.066 C 148.697 22.066,148.592 21.854,148.592 21.596 C 148.592 21.335,148.435 21.127,148.239 21.127 C 148.046 21.127,147.887 21.021,147.887 20.892 C 147.887 20.763,147.676 20.657,147.418 20.657 C 147.160 20.657,146.948 20.544,146.948 20.406 C 146.948 20.132,146.370 19.484,146.127 19.484 C 145.934 19.484,145.305 18.859,145.305 18.668 C 145.305 18.480,144.197 17.371,144.008 17.371 C 143.817 17.371,143.192 16.742,143.192 16.549 C 143.192 16.306,142.544 15.728,142.270 15.728 C 142.132 15.728,142.019 15.622,142.019 15.493 C 142.019 15.364,141.853 15.258,141.650 15.258 C 141.228 15.258,140.610 14.710,140.610 14.336 C 140.610 14.198,140.475 14.085,140.310 14.085 C 140.145 14.085,139.857 13.873,139.671 13.615 C 139.485 13.357,139.196 13.146,139.029 13.146 C 138.861 13.146,138.365 12.776,137.926 12.324 C 137.487 11.872,136.933 11.502,136.695 11.502 C 136.457 11.502,136.063 11.238,135.821 10.915 C 135.579 10.593,135.237 10.329,135.061 10.329 C 134.885 10.329,134.742 10.223,134.742 10.094 C 134.742 9.965,134.583 9.859,134.390 9.859 C 134.196 9.859,134.038 9.754,134.038 9.624 C 134.038 9.495,133.826 9.390,133.568 9.390 C 133.310 9.390,133.099 9.284,133.099 9.155 C 133.099 9.026,132.835 8.920,132.512 8.920 C 132.147 8.920,131.925 8.787,131.925 8.568 C 131.925 8.372,131.716 8.216,131.455 8.216 C 131.197 8.216,130.986 8.110,130.986 7.981 C 130.986 7.852,130.827 7.746,130.634 7.746 C 130.440 7.746,130.282 7.641,130.282 7.512 C 130.282 7.383,130.116 7.277,129.913 7.277 C 129.710 7.277,129.385 7.118,129.190 6.923 C 128.995 6.728,128.738 6.629,128.618 6.703 C 128.498 6.777,128.337 6.672,128.260 6.470 C 128.182 6.268,127.919 6.103,127.674 6.103 C 127.430 6.103,127.230 5.998,127.230 5.869 C 127.230 5.739,126.860 5.634,126.408 5.634 C 125.957 5.634,125.587 5.528,125.587 5.399 C 125.587 5.270,125.387 5.164,125.142 5.164 C 124.898 5.164,124.637 5.006,124.563 4.812 C 124.489 4.619,124.213 4.460,123.951 4.460 C 123.689 4.460,123.474 4.354,123.474 4.225 C 123.474 4.096,123.104 3.991,122.653 3.991 C 122.201 3.991,121.831 3.885,121.831 3.756 C 121.831 3.627,121.461 3.521,121.009 3.521 C 120.558 3.521,120.188 3.415,120.188 3.286 C 120.188 3.157,119.882 3.052,119.509 3.052 C 119.122 3.052,118.771 2.900,118.694 2.700 C 118.602 2.458,118.225 2.347,117.496 2.347 C 116.911 2.347,116.432 2.242,116.432 2.113 C 116.432 1.984,115.957 1.878,115.376 1.878 C 114.795 1.878,114.319 1.772,114.319 1.643 C 114.319 1.514,113.889 1.408,113.364 1.408 C 112.838 1.408,112.272 1.272,112.105 1.106 C 111.931 0.932,111.118 0.778,110.193 0.744 C 109.308 0.711,108.516 0.575,108.433 0.441 C 108.277 0.188,93.494 -0.025,88.741 0.158 M4.284 205.046 C 4.123 205.229,3.991 205.806,3.991 206.328 C 3.991 206.850,3.885 207.277,3.756 207.277 C 3.622 207.277,3.521 207.981,3.521 208.920 C 3.521 209.859,3.421 210.563,3.286 210.563 C 3.154 210.563,3.052 211.228,3.052 212.089 C 3.052 213.289,2.976 213.615,2.700 213.615 C 2.420 213.615,2.347 213.954,2.347 215.258 C 2.347 216.197,2.247 216.901,2.113 216.901 C 1.979 216.901,1.878 217.606,1.878 218.545 C 1.878 219.484,1.777 220.188,1.643 220.188 C 1.511 220.188,1.408 220.846,1.408 221.694 C 1.408 222.623,1.305 223.235,1.138 223.291 C 0.986 223.341,0.822 224.046,0.764 224.894 C 0.707 225.727,0.571 226.463,0.461 226.531 C 0.351 226.599,0.186 228.421,0.095 230.581 L -0.071 234.507 3.251 234.507 L 6.573 234.507 6.573 233.920 C 6.573 233.583,6.708 233.333,6.891 233.333 C 7.127 233.333,7.221 232.864,7.255 231.514 C 7.281 230.513,7.402 229.660,7.524 229.617 C 7.647 229.574,7.746 228.702,7.746 227.680 C 7.746 226.598,7.844 225.822,7.981 225.822 C 8.114 225.822,8.216 225.156,8.216 224.296 C 8.216 222.809,8.503 222.294,8.803 223.239 C 8.885 223.498,9.050 223.709,9.171 223.709 C 9.291 223.709,9.390 223.973,9.390 224.296 C 9.390 224.619,9.495 224.883,9.624 224.883 C 9.754 224.883,9.859 225.094,9.859 225.352 C 9.859 225.610,9.965 225.822,10.094 225.822 C 10.223 225.822,10.329 226.086,10.329 226.408 C 10.329 226.774,10.462 226.995,10.681 226.995 C 10.900 226.995,11.033 227.217,11.033 227.582 C 11.033 227.905,11.138 228.169,11.268 228.169 C 11.397 228.169,11.502 228.380,11.502 228.638 C 11.502 228.897,11.608 229.108,11.737 229.108 C 11.866 229.108,11.972 229.306,11.972 229.549 C 11.972 229.791,12.129 230.120,12.321 230.280 C 12.514 230.439,12.613 230.664,12.541 230.779 C 12.470 230.895,12.577 231.053,12.779 231.130 C 12.980 231.208,13.146 231.524,13.146 231.833 C 13.146 232.142,13.251 232.394,13.380 232.394 C 13.509 232.394,13.615 232.606,13.615 232.864 C 13.615 233.122,13.713 233.333,13.833 233.333 C 13.954 233.333,14.086 233.567,14.127 233.852 C 14.305 235.084,17.840 235.046,17.840 233.812 C 17.840 233.610,18.104 233.246,18.427 233.004 C 18.750 232.762,19.014 232.367,19.014 232.127 C 19.014 231.887,19.120 231.690,19.249 231.690 C 19.378 231.690,19.484 231.479,19.484 231.221 C 19.484 230.962,19.589 230.751,19.718 230.751 C 19.847 230.751,19.953 230.487,19.953 230.164 C 19.953 229.842,20.059 229.577,20.188 229.577 C 20.317 229.577,20.423 229.366,20.423 229.108 C 20.423 228.847,20.579 228.638,20.775 228.638 C 20.994 228.638,21.127 228.417,21.127 228.052 C 21.127 227.729,21.232 227.465,21.362 227.465 C 21.491 227.465,21.596 227.254,21.596 226.995 C 21.596 226.737,21.702 226.526,21.831 226.526 C 21.960 226.526,22.066 226.262,22.066 225.939 C 22.066 225.574,22.199 225.352,22.418 225.352 C 22.613 225.352,22.770 225.143,22.770 224.883 C 22.770 224.624,22.876 224.413,23.005 224.413 C 23.134 224.413,23.239 224.149,23.239 223.826 C 23.239 223.504,23.345 223.239,23.474 223.239 C 23.603 223.239,23.709 223.495,23.709 223.807 C 23.709 224.119,23.805 224.409,23.922 224.452 C 24.039 224.495,24.179 225.317,24.233 226.277 C 24.292 227.326,24.441 228.061,24.607 228.116 C 24.785 228.176,24.883 228.825,24.883 229.949 C 24.883 230.953,24.982 231.690,25.117 231.690 C 25.246 231.690,25.352 232.173,25.352 232.763 C 25.352 234.407,25.560 234.507,28.971 234.507 C 32.576 234.507,32.864 234.356,32.864 232.460 C 32.864 231.515,32.780 231.221,32.512 231.221 C 32.235 231.221,32.160 230.895,32.160 229.695 C 32.160 228.834,32.057 228.169,31.925 228.169 C 31.791 228.169,31.690 227.465,31.690 226.526 C 31.690 225.587,31.590 224.883,31.455 224.883 C 31.321 224.883,31.221 224.178,31.221 223.239 C 31.221 222.300,31.120 221.596,30.986 221.596 C 30.853 221.596,30.751 220.931,30.751 220.070 C 30.751 218.871,30.676 218.545,30.399 218.545 C 30.120 218.545,30.047 218.206,30.047 216.901 C 30.047 215.962,29.946 215.258,29.812 215.258 C 29.680 215.258,29.577 214.598,29.577 213.746 C 29.577 212.915,29.472 212.169,29.343 212.089 C 29.214 212.009,29.108 211.264,29.108 210.432 C 29.108 209.581,29.005 208.920,28.873 208.920 C 28.742 208.920,28.638 208.283,28.638 207.478 C 28.638 206.184,28.567 205.968,27.936 205.366 C 26.752 204.234,24.883 204.556,24.883 205.891 C 24.883 206.180,24.821 206.355,24.746 206.279 C 24.546 206.080,23.709 206.980,23.709 207.394 C 23.709 207.588,23.603 207.746,23.474 207.746 C 23.345 207.746,23.239 208.011,23.239 208.333 C 23.239 208.656,23.134 208.920,23.005 208.920 C 22.876 208.920,22.770 209.120,22.770 209.365 C 22.770 209.609,22.612 209.870,22.418 209.944 C 22.224 210.018,22.066 210.294,22.066 210.556 C 22.066 210.818,21.960 211.033,21.831 211.033 C 21.702 211.033,21.596 211.303,21.596 211.634 C 21.596 211.974,21.495 212.171,21.362 212.089 C 21.232 212.009,21.127 212.173,21.127 212.452 C 21.127 212.732,20.863 213.168,20.540 213.422 C 20.217 213.676,19.953 214.087,19.953 214.336 C 19.953 214.585,19.847 214.789,19.718 214.789 C 19.589 214.789,19.484 215.000,19.484 215.258 C 19.484 215.516,19.378 215.728,19.249 215.728 C 19.120 215.728,19.014 215.980,19.014 216.289 C 19.014 216.598,18.849 216.915,18.647 216.992 C 18.445 217.069,18.338 217.227,18.410 217.343 C 18.481 217.458,18.382 217.683,18.190 217.843 C 17.998 218.002,17.840 218.331,17.840 218.573 C 17.840 218.816,17.735 219.014,17.606 219.014 C 17.477 219.014,17.371 219.278,17.371 219.601 C 17.371 219.924,17.265 220.188,17.136 220.188 C 17.007 220.188,16.901 220.399,16.901 220.657 C 16.901 220.918,16.745 221.127,16.549 221.127 C 16.356 221.127,16.197 221.232,16.197 221.362 C 16.197 221.491,16.092 221.596,15.962 221.596 C 15.833 221.596,15.728 221.385,15.728 221.127 C 15.728 220.869,15.622 220.657,15.493 220.657 C 15.364 220.657,15.258 220.393,15.258 220.070 C 15.258 219.705,15.125 219.484,14.906 219.484 C 14.710 219.484,14.554 219.275,14.554 219.014 C 14.554 218.756,14.448 218.545,14.319 218.545 C 14.190 218.545,14.085 218.281,14.085 217.958 C 14.085 217.635,13.979 217.371,13.850 217.371 C 13.721 217.371,13.615 217.160,13.615 216.901 C 13.615 216.643,13.509 216.432,13.380 216.432 C 13.251 216.432,13.146 216.217,13.146 215.955 C 13.146 215.693,12.987 215.417,12.793 215.343 C 12.600 215.269,12.441 215.008,12.441 214.764 C 12.441 214.519,12.336 214.319,12.207 214.319 C 12.077 214.319,11.972 214.161,11.972 213.967 C 11.972 213.773,11.866 213.615,11.737 213.615 C 11.608 213.615,11.502 213.404,11.502 213.146 C 11.502 212.887,11.397 212.676,11.268 212.676 C 11.138 212.676,11.033 212.461,11.033 212.199 C 11.033 211.937,10.874 211.662,10.681 211.587 C 10.487 211.513,10.329 211.252,10.329 211.008 C 10.329 210.763,10.223 210.563,10.094 210.563 C 9.965 210.563,9.859 210.299,9.859 209.977 C 9.859 209.654,9.754 209.390,9.624 209.390 C 9.495 209.390,9.390 209.178,9.390 208.920 C 9.390 208.659,9.233 208.451,9.038 208.451 C 8.828 208.451,8.685 208.235,8.685 207.916 C 8.685 207.621,8.474 207.228,8.216 207.042 C 7.958 206.856,7.746 206.508,7.746 206.269 C 7.746 205.793,7.222 205.164,6.824 205.164 C 6.686 205.164,6.573 205.059,6.573 204.930 C 6.573 204.568,4.617 204.668,4.284 205.046 M61.737 204.930 C 61.737 205.059,61.579 205.164,61.385 205.164 C 61.076 205.164,61.033 206.899,61.033 219.366 C 61.033 236.406,60.503 234.507,65.258 234.507 L 68.545 234.507 68.545 226.995 C 68.545 222.144,68.628 219.484,68.779 219.484 C 68.908 219.484,69.014 219.589,69.014 219.718 C 69.014 219.847,69.173 219.953,69.366 219.953 C 69.560 219.953,69.718 220.069,69.718 220.211 C 69.718 220.353,70.035 220.765,70.423 221.127 C 70.810 221.489,71.127 221.901,71.127 222.043 C 71.127 222.184,71.236 222.300,71.369 222.300 C 71.684 222.300,73.375 223.992,73.298 224.231 C 73.266 224.331,73.349 224.413,73.482 224.413 C 73.799 224.413,76.995 227.609,76.995 227.926 C 76.995 228.060,77.104 228.169,77.238 228.169 C 77.553 228.169,79.108 229.724,79.108 230.039 C 79.108 230.173,79.214 230.282,79.344 230.282 C 79.650 230.282,82.864 233.498,82.864 233.804 C 82.864 233.933,82.977 234.038,83.115 234.038 C 83.254 234.038,83.525 234.196,83.719 234.390 C 84.072 234.743,85.554 234.866,86.248 234.599 C 86.784 234.394,86.819 206.034,86.284 205.500 C 85.880 205.096,79.812 205.001,79.812 205.399 C 79.812 205.528,79.660 205.634,79.474 205.634 C 79.188 205.634,79.132 206.654,79.115 212.252 C 79.104 215.892,79.050 218.915,78.995 218.970 C 78.880 219.086,78.169 218.417,78.169 218.192 C 78.169 218.000,77.545 217.371,77.354 217.371 C 77.111 217.371,76.056 216.235,76.056 215.973 C 76.056 215.838,75.951 215.728,75.822 215.728 C 75.692 215.728,73.955 214.090,71.960 212.089 C 69.637 209.760,68.159 208.451,67.852 208.451 C 67.587 208.451,67.371 208.344,67.371 208.214 C 67.371 207.315,64.050 204.695,62.909 204.695 C 62.265 204.695,61.737 204.800,61.737 204.930 M98.181 205.046 C 97.717 205.573,97.757 233.706,98.223 234.172 C 98.478 234.427,99.264 234.507,101.506 234.507 C 105.756 234.507,105.399 235.212,105.399 226.826 C 105.399 222.400,105.483 219.953,105.634 219.953 C 105.763 219.953,105.869 220.066,105.869 220.205 C 105.869 220.478,106.446 221.127,106.690 221.127 C 106.883 221.127,107.512 221.751,107.512 221.942 C 107.512 222.131,108.620 223.239,108.809 223.239 C 108.997 223.239,109.624 223.867,109.624 224.055 C 109.624 224.243,110.733 225.352,110.922 225.352 C 111.113 225.352,111.737 225.981,111.737 226.174 C 111.737 226.370,112.363 226.995,112.559 226.995 C 112.751 226.995,113.380 227.620,113.380 227.811 C 113.380 227.999,114.489 229.108,114.677 229.108 C 114.865 229.108,115.493 229.735,115.493 229.923 C 115.493 230.112,116.602 231.221,116.790 231.221 C 116.981 231.221,117.606 231.850,117.606 232.042 C 117.606 232.238,118.231 232.864,118.427 232.864 C 118.631 232.864,119.249 233.493,119.249 233.700 C 119.249 234.460,121.082 234.967,122.478 234.593 L 123.008 234.451 122.948 219.867 L 122.887 205.282 119.532 205.216 C 115.079 205.130,115.493 204.390,115.493 212.425 C 115.493 216.661,115.409 219.014,115.258 219.014 C 115.129 219.014,115.023 218.908,115.023 218.779 C 115.023 218.650,114.865 218.545,114.671 218.545 C 114.478 218.545,114.319 218.460,114.319 218.356 C 114.319 218.055,112.757 216.432,112.468 216.432 C 112.324 216.432,112.207 216.321,112.207 216.187 C 112.207 215.925,111.152 214.789,110.909 214.789 C 110.721 214.789,110.094 214.161,110.094 213.973 C 110.094 213.730,108.958 212.676,108.696 212.676 C 108.561 212.676,108.451 212.511,108.451 212.310 C 108.451 212.109,108.345 212.009,108.216 212.089 C 108.087 212.169,107.981 212.118,107.981 211.975 C 107.981 211.646,106.909 210.563,106.583 210.563 C 106.448 210.563,106.338 210.453,106.338 210.318 C 106.338 210.056,105.284 208.920,105.041 208.920 C 104.827 208.920,104.225 208.281,104.225 208.054 C 104.225 207.946,103.941 207.648,103.593 207.391 C 103.245 207.135,102.804 206.745,102.612 206.526 C 102.420 206.307,102.161 206.191,102.035 206.269 C 101.907 206.348,101.880 206.290,101.974 206.138 C 102.199 205.773,101.563 205.164,100.956 205.164 C 100.688 205.164,100.469 205.059,100.469 204.930 C 100.469 204.568,98.514 204.668,98.181 205.046 M142.723 204.930 C 142.723 205.059,142.353 205.164,141.901 205.164 C 141.450 205.164,141.080 205.270,141.080 205.399 C 141.080 205.528,140.809 205.634,140.479 205.634 C 140.138 205.634,139.941 205.735,140.023 205.869 C 140.150 206.073,139.674 206.215,139.143 206.131 C 139.046 206.116,138.967 206.262,138.967 206.455 C 138.967 206.649,138.782 206.808,138.556 206.808 C 138.144 206.808,136.854 207.775,136.854 208.084 C 136.854 208.288,136.238 208.920,136.039 208.920 C 135.692 208.920,134.742 210.116,134.742 210.553 C 134.742 210.831,134.588 211.033,134.376 211.033 C 134.175 211.033,134.075 211.138,134.155 211.268 C 134.235 211.397,134.135 211.502,133.934 211.502 C 133.700 211.502,133.568 211.714,133.568 212.089 C 133.568 212.412,133.462 212.676,133.333 212.676 C 133.204 212.676,133.099 213.046,133.099 213.498 C 133.099 213.950,132.993 214.319,132.864 214.319 C 132.735 214.319,132.629 214.795,132.629 215.376 C 132.629 216.158,132.538 216.432,132.277 216.432 C 131.980 216.432,131.925 216.967,131.925 219.836 C 131.925 222.705,131.980 223.239,132.277 223.239 C 132.538 223.239,132.629 223.513,132.629 224.296 C 132.629 224.877,132.735 225.352,132.864 225.352 C 132.993 225.352,133.099 225.616,133.099 225.939 C 133.099 226.262,133.204 226.526,133.333 226.526 C 133.462 226.526,133.568 226.692,133.568 226.895 C 133.568 227.098,133.727 227.423,133.922 227.618 C 134.117 227.813,134.216 228.070,134.142 228.190 C 134.068 228.309,134.173 228.470,134.375 228.548 C 134.577 228.625,134.742 228.889,134.742 229.133 C 134.742 229.377,134.847 229.577,134.977 229.577 C 135.106 229.577,135.211 229.691,135.211 229.829 C 135.211 230.123,135.794 230.749,136.075 230.756 C 136.181 230.759,136.583 231.129,136.970 231.578 C 137.356 232.027,137.834 232.394,138.033 232.394 C 138.231 232.394,138.546 232.606,138.732 232.864 C 138.919 233.122,139.247 233.333,139.463 233.333 C 139.679 233.333,139.917 233.492,139.991 233.685 C 140.069 233.888,140.420 234.038,140.818 234.038 C 141.199 234.038,141.554 234.170,141.608 234.331 C 141.682 234.554,142.929 234.624,146.780 234.624 C 150.526 234.624,151.931 234.548,152.148 234.331 C 152.309 234.170,152.737 234.038,153.099 234.038 C 153.526 234.038,153.756 233.915,153.756 233.685 C 153.756 233.466,153.978 233.333,154.343 233.333 C 154.665 233.333,154.930 233.228,154.930 233.099 C 154.930 232.969,155.114 232.860,155.340 232.856 C 155.848 232.847,156.573 232.318,156.573 231.958 C 156.573 231.811,156.784 231.690,157.042 231.690 C 157.355 231.690,157.512 231.534,157.512 231.221 C 157.512 230.960,157.668 230.751,157.864 230.751 C 158.125 230.751,158.216 230.477,158.216 229.695 C 158.216 228.912,158.125 228.638,157.864 228.638 C 157.670 228.638,157.512 228.443,157.512 228.204 C 157.512 227.965,157.206 227.449,156.832 227.058 C 156.458 226.667,156.082 226.123,155.995 225.850 C 155.906 225.569,155.639 225.352,155.383 225.352 C 155.134 225.352,154.930 225.246,154.930 225.117 C 154.930 224.988,154.560 224.883,154.108 224.883 C 153.656 224.883,153.286 224.988,153.286 225.117 C 153.286 225.246,153.075 225.352,152.817 225.352 C 152.556 225.352,152.347 225.509,152.347 225.704 C 152.347 225.923,152.126 226.056,151.761 226.056 C 151.438 226.056,151.174 226.162,151.174 226.291 C 151.174 226.420,150.962 226.526,150.704 226.526 C 150.446 226.526,150.235 226.631,150.235 226.761 C 150.235 226.890,149.865 226.995,149.413 226.995 C 148.961 226.995,148.592 227.101,148.592 227.230 C 148.592 227.364,147.887 227.465,146.948 227.465 C 146.009 227.465,145.305 227.364,145.305 227.230 C 145.305 227.101,145.100 226.995,144.850 226.995 C 144.599 226.995,144.329 226.890,144.249 226.761 C 144.169 226.631,143.944 226.526,143.749 226.526 C 143.339 226.526,142.723 225.972,142.723 225.604 C 142.723 225.465,142.613 225.352,142.478 225.352 C 142.133 225.352,141.081 224.262,141.072 223.896 C 141.068 223.728,140.913 223.391,140.728 223.146 C 140.542 222.901,140.446 222.611,140.514 222.501 C 140.582 222.391,140.473 222.300,140.272 222.300 C 140.071 222.300,139.906 222.142,139.906 221.948 C 139.906 221.641,141.121 221.596,149.430 221.596 C 157.371 221.596,159.009 221.541,159.289 221.261 C 159.695 220.855,159.791 213.615,159.390 213.615 C 159.261 213.615,159.155 213.298,159.155 212.911 C 159.155 212.523,159.049 212.207,158.920 212.207 C 158.791 212.207,158.685 211.988,158.685 211.720 C 158.685 211.201,158.178 210.563,157.763 210.563 C 157.625 210.563,157.512 210.349,157.512 210.087 C 157.512 209.458,154.865 206.808,154.237 206.808 C 153.958 206.808,153.756 206.654,153.756 206.442 C 153.756 206.240,153.650 206.141,153.521 206.221 C 153.392 206.300,153.286 206.201,153.286 206.000 C 153.286 205.738,153.052 205.634,152.465 205.634 C 152.013 205.634,151.643 205.528,151.643 205.399 C 151.643 205.270,151.326 205.164,150.939 205.164 C 150.552 205.164,150.235 205.059,150.235 204.930 C 150.235 204.783,148.826 204.695,146.479 204.695 C 144.131 204.695,142.723 204.783,142.723 204.930 M175.822 204.930 C 175.822 205.059,175.346 205.164,174.765 205.164 C 174.184 205.164,173.709 205.270,173.709 205.399 C 173.709 205.528,173.445 205.634,173.122 205.634 C 172.747 205.634,172.535 205.766,172.535 206.000 C 172.535 206.201,172.430 206.300,172.300 206.221 C 172.171 206.141,172.066 206.240,172.066 206.442 C 172.066 206.655,171.863 206.808,171.579 206.808 C 170.990 206.808,170.423 207.333,170.423 207.878 C 170.423 208.098,170.190 208.480,169.905 208.727 C 169.620 208.974,169.349 209.462,169.304 209.811 C 169.258 210.160,169.121 210.481,169.000 210.524 C 168.615 210.661,168.726 215.943,169.121 216.338 C 169.310 216.526,169.404 216.836,169.331 217.026 C 169.248 217.241,169.340 217.371,169.576 217.371 C 169.803 217.371,169.953 217.568,169.953 217.867 C 169.953 218.328,171.452 219.953,171.877 219.953 C 171.981 219.953,172.066 220.112,172.066 220.305 C 172.066 220.501,172.274 220.657,172.535 220.657 C 172.793 220.657,173.005 220.763,173.005 220.892 C 173.005 221.021,173.163 221.127,173.357 221.127 C 173.550 221.127,173.709 221.232,173.709 221.362 C 173.709 221.491,173.909 221.596,174.153 221.596 C 174.398 221.596,174.658 221.755,174.733 221.948 C 174.807 222.142,175.082 222.300,175.345 222.300 C 175.607 222.300,175.822 222.406,175.822 222.535 C 175.822 222.664,176.138 222.770,176.526 222.770 C 176.913 222.770,177.230 222.876,177.230 223.005 C 177.230 223.134,177.440 223.239,177.696 223.239 C 179.205 223.239,181.106 226.467,180.047 227.230 C 179.789 227.416,179.577 227.704,179.577 227.869 C 179.577 228.079,179.156 228.169,178.169 228.169 C 177.074 228.169,176.761 228.091,176.761 227.817 C 176.761 227.623,176.556 227.465,176.305 227.465 C 176.054 227.465,175.784 227.359,175.704 227.230 C 175.624 227.101,175.354 226.995,175.104 226.995 C 174.853 226.995,174.648 226.890,174.648 226.761 C 174.648 226.631,174.437 226.526,174.178 226.526 C 173.920 226.526,173.709 226.420,173.709 226.291 C 173.709 226.162,173.120 226.056,172.401 226.056 C 171.055 226.056,170.423 226.389,170.423 227.096 C 170.423 227.299,170.317 227.465,170.188 227.465 C 170.059 227.465,169.953 227.612,169.953 227.792 C 169.953 227.972,169.788 228.182,169.586 228.260 C 169.384 228.337,169.285 228.508,169.366 228.638 C 169.447 228.769,169.348 228.940,169.146 229.017 C 168.617 229.220,168.616 231.690,169.145 231.690 C 169.347 231.690,169.458 231.777,169.392 231.883 C 169.237 232.135,170.092 232.864,170.543 232.864 C 170.735 232.864,170.892 232.969,170.892 233.099 C 170.892 233.228,171.156 233.333,171.479 233.333 C 171.844 233.333,172.066 233.466,172.066 233.685 C 172.066 233.930,172.311 234.038,172.868 234.038 C 173.309 234.038,173.714 234.170,173.768 234.331 C 173.841 234.552,174.982 234.624,178.404 234.624 C 181.826 234.624,182.966 234.552,183.040 234.331 C 183.094 234.170,183.393 234.038,183.705 234.038 C 184.053 234.038,184.272 233.901,184.272 233.685 C 184.272 233.492,184.457 233.333,184.683 233.333 C 185.096 233.333,186.385 232.366,186.385 232.057 C 186.385 231.850,187.003 231.221,187.207 231.221 C 187.533 231.221,188.028 230.524,188.028 230.064 C 188.028 229.796,188.134 229.577,188.263 229.577 C 188.392 229.577,188.498 229.102,188.498 228.521 C 188.498 227.940,188.603 227.465,188.732 227.465 C 188.865 227.465,188.967 226.800,188.967 225.939 C 188.967 225.078,188.865 224.413,188.732 224.413 C 188.603 224.413,188.498 223.938,188.498 223.357 C 188.498 222.776,188.392 222.300,188.263 222.300 C 188.134 222.300,188.028 222.082,188.028 221.814 C 188.028 221.354,187.533 220.657,187.207 220.657 C 187.014 220.657,186.385 220.033,186.385 219.842 C 186.385 219.653,185.276 218.545,185.088 218.545 C 185.008 218.545,184.796 218.413,184.616 218.251 C 183.780 217.502,183.556 217.371,183.108 217.371 C 182.845 217.371,182.629 217.265,182.629 217.136 C 182.629 217.007,182.418 216.901,182.160 216.901 C 181.901 216.901,181.690 216.796,181.690 216.667 C 181.690 216.538,181.437 216.432,181.128 216.432 C 180.819 216.432,180.506 216.273,180.432 216.080 C 180.356 215.882,180.007 215.728,179.637 215.728 C 179.246 215.728,178.839 215.536,178.638 215.258 C 178.452 215.000,178.105 214.789,177.866 214.789 C 177.389 214.789,176.761 214.264,176.761 213.867 C 176.761 213.728,176.655 213.615,176.526 213.615 C 176.397 213.615,176.291 213.410,176.291 213.159 C 176.291 212.909,176.397 212.638,176.526 212.559 C 176.655 212.479,176.761 212.209,176.761 211.958 C 176.761 211.550,176.934 211.502,178.404 211.502 C 179.343 211.502,180.047 211.603,180.047 211.737 C 180.047 211.866,180.247 211.972,180.491 211.972 C 180.736 211.972,180.996 212.130,181.071 212.324 C 181.145 212.518,181.421 212.676,181.683 212.676 C 181.945 212.676,182.160 212.782,182.160 212.911 C 182.160 213.040,182.371 213.146,182.629 213.146 C 182.887 213.146,183.099 213.251,183.099 213.380 C 183.099 213.509,183.627 213.615,184.272 213.615 C 184.918 213.615,185.446 213.509,185.446 213.380 C 185.446 213.251,185.657 213.146,185.915 213.146 C 186.248 213.146,186.385 212.989,186.385 212.611 C 186.385 212.316,186.601 211.920,186.866 211.730 C 188.278 210.716,188.464 207.277,187.106 207.277 C 186.968 207.277,186.854 207.171,186.854 207.042 C 186.854 206.913,186.654 206.808,186.410 206.808 C 186.166 206.808,185.902 206.642,185.825 206.441 C 185.747 206.239,185.586 206.134,185.467 206.208 C 185.347 206.282,185.090 206.183,184.895 205.988 C 184.700 205.793,184.381 205.634,184.186 205.634 C 183.990 205.634,183.765 205.528,183.685 205.399 C 183.606 205.270,183.124 205.164,182.615 205.164 C 182.106 205.164,181.690 205.059,181.690 204.930 C 181.690 204.786,180.556 204.695,178.756 204.695 C 176.956 204.695,175.822 204.786,175.822 204.930 M208.216 204.930 C 208.216 205.059,207.741 205.164,207.160 205.164 C 206.579 205.164,206.103 205.270,206.103 205.399 C 206.103 205.528,205.901 205.634,205.653 205.634 C 205.406 205.634,205.167 205.744,205.122 205.879 C 205.077 206.014,204.804 206.142,204.515 206.164 C 204.227 206.185,203.991 206.339,203.991 206.505 C 203.991 206.672,203.779 206.808,203.521 206.808 C 203.263 206.808,203.052 206.913,203.052 207.042 C 203.052 207.171,202.893 207.277,202.700 207.277 C 202.506 207.277,202.347 207.383,202.347 207.512 C 202.347 207.641,202.136 207.746,201.878 207.746 C 201.617 207.746,201.408 207.903,201.408 208.099 C 201.408 208.292,201.291 208.451,201.147 208.451 C 200.740 208.451,199.296 210.135,199.296 210.609 C 199.296 210.842,199.183 211.033,199.044 211.033 C 198.630 211.033,198.122 211.670,198.122 212.190 C 198.122 212.457,198.016 212.676,197.887 212.676 C 197.758 212.676,197.653 213.046,197.653 213.498 C 197.653 213.950,197.547 214.319,197.418 214.319 C 197.289 214.319,197.183 214.636,197.183 215.023 C 197.183 215.493,197.066 215.728,196.831 215.728 C 196.532 215.728,196.479 216.328,196.479 219.718 C 196.479 223.109,196.532 223.709,196.831 223.709 C 197.077 223.709,197.183 223.957,197.183 224.531 C 197.183 224.982,197.289 225.352,197.418 225.352 C 197.547 225.352,197.653 225.722,197.653 226.174 C 197.653 226.626,197.758 226.995,197.887 226.995 C 198.016 226.995,198.122 227.207,198.122 227.465 C 198.122 227.723,198.228 227.934,198.357 227.934 C 198.486 227.934,198.592 228.093,198.592 228.286 C 198.592 228.480,198.705 228.638,198.843 228.638 C 199.190 228.638,199.764 229.243,199.773 229.619 C 199.782 230.012,200.335 230.751,200.620 230.751 C 200.738 230.751,200.988 230.962,201.174 231.221 C 201.360 231.479,201.700 231.690,201.930 231.690 C 202.159 231.690,202.347 231.849,202.347 232.042 C 202.347 232.236,202.506 232.394,202.700 232.394 C 202.893 232.394,203.052 232.500,203.052 232.629 C 203.052 232.758,203.263 232.864,203.521 232.864 C 203.779 232.864,203.991 232.969,203.991 233.099 C 203.991 233.228,204.255 233.333,204.577 233.333 C 204.943 233.333,205.164 233.466,205.164 233.685 C 205.164 233.879,205.354 234.038,205.587 234.038 C 205.819 234.038,206.141 234.170,206.303 234.331 C 206.519 234.547,207.901 234.624,211.553 234.624 C 215.310 234.624,216.534 234.553,216.608 234.331 C 216.662 234.170,216.961 234.038,217.273 234.038 C 217.621 234.038,217.840 233.901,217.840 233.685 C 217.840 233.466,218.062 233.333,218.427 233.333 C 218.750 233.333,219.014 233.228,219.014 233.099 C 219.014 232.969,219.180 232.864,219.383 232.864 C 219.805 232.864,220.423 232.316,220.423 231.942 C 220.423 231.803,220.640 231.690,220.905 231.690 C 221.430 231.690,223.709 229.591,223.709 229.108 C 223.709 228.944,223.973 228.565,224.296 228.266 C 224.619 227.967,224.883 227.558,224.883 227.359 C 224.883 227.159,224.988 226.995,225.117 226.995 C 225.246 226.995,225.352 226.731,225.352 226.408 C 225.352 226.086,225.458 225.822,225.587 225.822 C 225.716 225.822,225.822 225.346,225.822 224.765 C 225.822 224.184,225.927 223.709,226.056 223.709 C 226.204 223.709,226.291 222.222,226.291 219.718 C 226.291 217.214,226.204 215.728,226.056 215.728 C 225.927 215.728,225.822 215.252,225.822 214.671 C 225.822 214.090,225.716 213.615,225.587 213.615 C 225.458 213.615,225.352 213.404,225.352 213.146 C 225.352 212.887,225.246 212.676,225.117 212.676 C 224.988 212.676,224.883 212.480,224.883 212.239 C 224.883 211.999,224.619 211.605,224.296 211.362 C 223.973 211.120,223.709 210.746,223.709 210.532 C 223.709 210.318,223.435 209.894,223.100 209.590 C 222.765 209.286,222.199 208.747,221.842 208.392 C 221.485 208.037,221.043 207.746,220.860 207.746 C 220.676 207.746,220.374 207.535,220.188 207.277 C 220.002 207.019,219.673 206.808,219.457 206.808 C 219.241 206.808,219.001 206.642,218.923 206.441 C 218.846 206.239,218.685 206.134,218.565 206.208 C 218.446 206.282,218.188 206.183,217.993 205.988 C 217.799 205.793,217.479 205.634,217.284 205.634 C 217.089 205.634,216.864 205.528,216.784 205.399 C 216.704 205.270,216.170 205.164,215.596 205.164 C 215.023 205.164,214.554 205.059,214.554 204.930 C 214.554 204.785,213.341 204.695,211.385 204.695 C 209.429 204.695,208.216 204.785,208.216 204.930 M270.012 205.046 C 269.850 205.229,269.718 205.545,269.718 205.749 C 269.718 205.952,269.560 206.179,269.366 206.253 C 269.173 206.327,269.014 206.588,269.014 206.833 C 269.014 207.077,268.908 207.277,268.779 207.277 C 268.650 207.277,268.545 207.647,268.545 208.099 C 268.545 208.550,268.439 208.920,268.310 208.920 C 268.181 208.920,268.075 209.120,268.075 209.365 C 268.075 209.609,267.910 209.872,267.708 209.950 C 267.506 210.027,267.402 210.188,267.476 210.308 C 267.549 210.428,267.451 210.685,267.256 210.880 C 267.061 211.075,266.901 211.394,266.901 211.589 C 266.901 211.784,266.796 212.009,266.667 212.089 C 266.538 212.169,266.432 212.439,266.432 212.690 C 266.432 212.941,266.326 213.146,266.197 213.146 C 266.068 213.146,265.962 213.410,265.962 213.732 C 265.962 214.098,265.829 214.319,265.610 214.319 C 265.376 214.319,265.258 214.554,265.258 215.023 C 265.258 215.411,265.153 215.728,265.023 215.728 C 264.894 215.728,264.789 215.992,264.789 216.315 C 264.789 216.637,264.683 216.901,264.554 216.901 C 264.425 216.901,264.319 217.113,264.319 217.371 C 264.319 217.629,264.214 217.840,264.085 217.840 C 263.955 217.840,263.850 218.104,263.850 218.427 C 263.850 218.792,263.717 219.014,263.498 219.014 C 263.279 219.014,263.146 219.236,263.146 219.601 C 263.146 219.924,263.040 220.188,262.911 220.188 C 262.782 220.188,262.676 220.399,262.676 220.657 C 262.676 220.915,262.570 221.127,262.441 221.127 C 262.312 221.127,262.207 221.382,262.207 221.694 C 262.207 222.006,262.100 222.297,261.970 222.340 C 261.839 222.384,261.682 222.683,261.620 223.005 C 261.558 223.327,261.400 223.626,261.270 223.669 C 261.140 223.712,261.033 224.003,261.033 224.315 C 261.033 224.627,260.927 224.883,260.798 224.883 C 260.669 224.883,260.563 225.147,260.563 225.469 C 260.563 225.792,260.458 226.056,260.329 226.056 C 260.200 226.056,260.094 226.256,260.094 226.501 C 260.094 226.745,259.935 227.006,259.742 227.080 C 259.548 227.155,259.390 227.430,259.390 227.692 C 259.390 227.954,259.284 228.169,259.155 228.169 C 259.026 228.169,258.920 228.380,258.920 228.638 C 258.920 228.897,258.803 229.108,258.660 229.108 C 258.517 229.108,258.460 229.263,258.533 229.453 C 258.606 229.643,258.512 229.953,258.323 230.141 C 258.135 230.329,257.981 230.807,257.981 231.204 C 257.981 231.688,257.866 231.925,257.629 231.925 C 257.359 231.925,257.277 232.225,257.277 233.216 L 257.277 234.507 260.698 234.507 C 264.127 234.507,264.789 234.358,264.789 233.585 C 264.789 233.447,264.894 233.333,265.023 233.333 C 265.153 233.333,265.258 232.964,265.258 232.512 C 265.258 231.938,265.364 231.690,265.610 231.690 C 265.804 231.690,265.962 231.524,265.962 231.321 C 265.962 230.367,266.424 230.282,271.579 230.282 C 276.369 230.282,276.526 230.297,276.526 230.751 C 276.526 231.009,276.631 231.221,276.761 231.221 C 276.890 231.221,276.995 231.485,276.995 231.808 C 276.995 232.173,277.128 232.394,277.347 232.394 C 277.543 232.394,277.700 232.603,277.700 232.864 C 277.700 233.122,277.805 233.333,277.934 233.333 C 278.063 233.333,278.169 233.600,278.169 233.926 L 278.169 234.519 281.866 234.454 L 285.563 234.390 285.635 233.272 C 285.689 232.431,285.616 232.120,285.342 232.015 C 285.141 231.938,284.977 231.622,284.977 231.313 C 284.977 231.004,284.871 230.751,284.742 230.751 C 284.613 230.751,284.507 230.546,284.507 230.296 C 284.507 230.045,284.401 229.775,284.272 229.695 C 284.143 229.615,284.038 229.345,284.038 229.094 C 284.038 228.844,283.932 228.638,283.803 228.638 C 283.674 228.638,283.568 228.424,283.568 228.162 C 283.568 227.899,283.410 227.624,283.216 227.550 C 283.022 227.475,282.864 227.215,282.864 226.970 C 282.864 226.726,282.758 226.526,282.629 226.526 C 282.500 226.526,282.394 226.262,282.394 225.939 C 282.394 225.616,282.289 225.352,282.160 225.352 C 282.031 225.352,281.925 225.047,281.925 224.673 C 281.925 224.286,281.773 223.936,281.573 223.859 C 281.379 223.784,281.221 223.509,281.221 223.247 C 281.221 222.985,281.115 222.770,280.986 222.770 C 280.857 222.770,280.751 222.506,280.751 222.183 C 280.751 221.860,280.646 221.596,280.516 221.596 C 280.387 221.596,280.282 221.385,280.282 221.127 C 280.282 220.869,280.176 220.657,280.047 220.657 C 279.918 220.657,279.812 220.393,279.812 220.070 C 279.812 219.705,279.679 219.484,279.460 219.484 C 279.264 219.484,279.108 219.275,279.108 219.014 C 279.108 218.756,279.002 218.545,278.873 218.545 C 278.744 218.545,278.638 218.175,278.638 217.723 C 278.638 217.271,278.533 216.901,278.404 216.901 C 278.275 216.901,278.169 216.759,278.169 216.585 C 278.169 216.115,277.463 214.789,277.213 214.789 C 277.093 214.789,276.995 214.525,276.995 214.202 C 276.995 213.879,276.890 213.615,276.761 213.615 C 276.631 213.615,276.526 213.404,276.526 213.146 C 276.526 212.887,276.420 212.676,276.291 212.676 C 276.162 212.676,276.056 212.412,276.056 212.089 C 276.056 211.724,275.923 211.502,275.704 211.502 C 275.509 211.502,275.352 211.294,275.352 211.033 C 275.352 210.775,275.246 210.563,275.117 210.563 C 274.988 210.563,274.883 210.202,274.883 209.761 C 274.883 209.320,274.771 208.922,274.635 208.877 C 274.499 208.831,274.361 208.614,274.329 208.395 C 274.297 208.175,274.197 207.921,274.107 207.832 C 274.017 207.742,273.944 207.475,273.944 207.238 C 273.944 207.001,273.785 206.808,273.592 206.808 C 273.393 206.808,273.239 206.598,273.239 206.327 C 273.239 205.077,270.828 204.119,270.012 205.046 M42.782 205.515 C 42.339 206.018,42.371 233.511,42.815 234.096 C 43.236 234.650,48.887 234.715,49.430 234.172 C 49.713 233.888,49.765 231.612,49.765 219.500 L 49.765 205.164 46.420 205.173 C 43.834 205.180,43.009 205.258,42.782 205.515 M233.157 205.515 C 232.717 206.016,232.752 211.190,233.199 211.636 C 233.456 211.893,234.257 211.972,236.603 211.972 L 239.671 211.972 239.671 223.019 C 239.671 230.375,239.750 234.016,239.908 233.919 C 240.038 233.839,240.208 233.938,240.285 234.140 C 240.507 234.719,246.413 234.680,246.856 234.096 C 247.105 233.769,247.170 231.484,247.176 222.829 L 247.183 211.972 250.017 211.972 C 252.160 211.972,252.932 211.890,253.186 211.636 C 253.666 211.156,253.666 205.980,253.186 205.500 C 252.688 205.002,233.596 205.017,233.157 205.515 M148.005 211.737 C 148.084 211.866,148.355 211.972,148.605 211.972 C 148.856 211.972,149.061 212.085,149.061 212.223 C 149.061 212.493,149.638 213.146,149.877 213.146 C 150.224 213.146,151.174 214.341,151.174 214.778 C 151.174 215.042,151.279 215.258,151.408 215.258 C 151.538 215.258,151.643 215.364,151.643 215.493 C 151.643 215.643,149.648 215.728,146.127 215.728 C 142.606 215.728,140.610 215.643,140.610 215.493 C 140.610 215.364,140.716 215.258,140.845 215.258 C 140.974 215.258,141.080 215.042,141.080 214.778 C 141.080 214.278,142.050 213.146,142.478 213.146 C 142.613 213.146,142.723 213.040,142.723 212.911 C 142.723 212.782,142.934 212.676,143.192 212.676 C 143.453 212.676,143.662 212.520,143.662 212.324 C 143.662 212.105,143.884 211.972,144.249 211.972 C 144.572 211.972,144.836 211.866,144.836 211.737 C 144.836 211.605,145.496 211.502,146.348 211.502 C 147.179 211.502,147.925 211.608,148.005 211.737 M212.526 212.324 C 212.605 212.530,212.957 212.676,213.373 212.676 C 213.764 212.676,214.085 212.782,214.085 212.911 C 214.085 213.040,214.325 213.146,214.620 213.146 C 214.914 213.146,215.307 213.357,215.493 213.615 C 215.679 213.873,216.072 214.085,216.366 214.085 C 216.767 214.085,216.901 214.219,216.901 214.620 C 216.901 214.914,217.113 215.307,217.371 215.493 C 217.629 215.679,217.840 216.006,217.840 216.220 C 217.840 216.434,217.993 216.735,218.179 216.890 C 218.365 217.044,218.459 217.321,218.388 217.505 C 218.310 217.710,218.407 217.840,218.637 217.840 C 219.195 217.840,219.195 221.476,218.638 221.690 C 218.418 221.775,218.318 221.984,218.399 222.194 C 218.477 222.397,218.386 222.611,218.189 222.687 C 217.997 222.760,217.840 223.020,217.840 223.265 C 217.840 223.509,217.735 223.709,217.606 223.709 C 217.477 223.709,217.371 223.829,217.371 223.975 C 217.371 224.256,216.204 225.351,215.904 225.352 C 215.807 225.352,215.728 225.465,215.728 225.604 C 215.728 226.018,215.090 226.526,214.571 226.526 C 214.303 226.526,214.085 226.631,214.085 226.761 C 214.085 226.890,213.609 226.995,213.028 226.995 C 212.447 226.995,211.972 227.101,211.972 227.230 C 211.972 227.359,211.767 227.465,211.516 227.465 C 211.266 227.465,210.995 227.359,210.915 227.230 C 210.836 227.101,210.301 226.995,209.728 226.995 C 209.155 226.995,208.685 226.890,208.685 226.761 C 208.685 226.631,208.522 226.526,208.323 226.526 C 207.890 226.526,205.244 223.861,205.041 223.220 C 204.962 222.972,204.799 222.770,204.679 222.770 C 204.559 222.770,204.460 222.506,204.460 222.183 C 204.460 221.860,204.354 221.596,204.225 221.596 C 204.088 221.596,203.991 220.814,203.991 219.718 C 203.991 218.623,204.088 217.840,204.225 217.840 C 204.354 217.840,204.460 217.638,204.460 217.390 C 204.460 217.143,204.571 216.903,204.708 216.858 C 204.844 216.813,204.981 216.602,205.012 216.391 C 205.043 216.179,205.407 215.690,205.820 215.303 C 206.234 214.917,206.573 214.484,206.573 214.342 C 206.573 214.201,206.708 214.085,206.873 214.085 C 207.038 214.085,207.326 213.873,207.512 213.615 C 207.698 213.357,208.029 213.146,208.248 213.146 C 208.467 213.146,208.682 213.043,208.725 212.918 C 208.768 212.793,209.146 212.665,209.566 212.634 C 210.002 212.601,210.329 212.447,210.329 212.274 C 210.329 211.822,212.351 211.868,212.526 212.324 M271.831 220.070 C 271.831 220.393,271.937 220.657,272.066 220.657 C 272.195 220.657,272.300 220.869,272.300 221.127 C 272.300 221.385,272.406 221.596,272.535 221.596 C 272.664 221.596,272.770 221.815,272.770 222.082 C 272.770 222.350,272.929 222.728,273.124 222.923 C 273.721 223.519,273.292 223.709,271.348 223.709 L 269.484 223.709 269.484 223.030 C 269.484 222.643,269.635 222.293,269.836 222.216 C 270.029 222.141,270.188 221.866,270.188 221.604 C 270.188 221.341,270.293 221.127,270.423 221.127 C 270.552 221.127,270.657 220.911,270.657 220.647 C 270.657 220.097,271.108 219.506,271.538 219.492 C 271.699 219.488,271.831 219.748,271.831 220.070 " stroke="none" fill="#043c64" fill-rule="evenodd"></path><path id="path2" d="" stroke="none" fill="#80a044" fill-rule="evenodd"></path><path id="path3" d="" stroke="none" fill="#445c44" fill-rule="evenodd"></path><path id="path4" d="" stroke="none" fill="#046044" fill-rule="evenodd"></path></g></svg>