<?xml version="1.0" standalone="no"?>
<!DOCTYPE svg PUBLIC "-//W3C//DTD SVG 20010904//EN"
 "http://www.w3.org/TR/2001/REC-SVG-20010904/DTD/svg10.dtd">
<svg version="1.0" xmlns="http://www.w3.org/2000/svg"
 width="512.000000pt" height="512.000000pt" viewBox="0 0 512.000000 512.000000"
 preserveAspectRatio="xMidYMid meet">
<metadata>
Created by potrace 1.16, written by Peter Selinger 2001-2019
</metadata>
<g transform="translate(0.000000,512.000000) scale(0.100000,-0.100000)"
fill="#000000" stroke="none">
<path d="M306 5094 l-26 -27 0 -2116 0 -2116 418 -417 417 -418 1406 0 1406 0
25 25 c35 34 38 59 38 271 l0 183 303 3 c298 3 303 3 352 28 74 36 148 114
173 183 22 57 22 68 22 642 0 565 -1 586 -21 639 -26 72 -93 145 -166 181
l-58 30 -302 3 -303 3 -1 447 c0 489 -2 503 -56 535 -45 26 -106 9 -133 -36
-19 -30 -20 -53 -20 -489 l0 -458 -702 0 c-443 0 -727 -4 -768 -11 -115 -18
-207 -88 -262 -197 l-23 -47 0 -600 c0 -595 0 -600 22 -647 32 -71 103 -141
176 -174 l62 -29 748 -3 747 -3 0 -139 0 -140 -1255 0 -1254 0 -3 361 -3 361
-33 29 -32 29 -360 0 -360 0 0 1970 0 1970 1650 0 1649 0 3 -500 3 -500 26
-26 c16 -15 41 -28 66 -31 35 -5 45 -1 74 25 l34 30 3 534 c2 293 0 552 -3
575 -4 25 -16 51 -32 67 l-26 26 -1797 0 -1797 0 -27 -26z m4270 -3133 c66
-40 65 -31 62 -638 -3 -519 -4 -549 -22 -576 -41 -60 27 -57 -1188 -57 -1099
0 -1113 0 -1146 20 -62 38 -62 34 -62 626 0 593 -1 586 64 625 30 18 73 19
1146 19 1073 0 1116 -1 1146 -19z m-3516 -1396 c0 -118 -1 -215 -3 -215 -1 0
-99 97 -217 215 l-215 215 218 0 217 0 0 -215z"/>
<path d="M2763 1711 c-277 -103 -357 -449 -151 -654 79 -79 150 -110 262 -115
75 -3 101 0 147 17 134 51 229 198 229 356 0 95 -46 125 -192 125 -107 0 -155
-17 -177 -64 -32 -68 27 -146 112 -146 39 0 39 0 25 -22 -8 -13 -30 -34 -49
-46 -49 -34 -134 -28 -186 14 -54 44 -75 76 -80 127 -8 67 4 113 40 154 65 74
153 91 245 48 62 -29 82 -31 121 -10 35 18 55 64 47 108 -8 42 -26 59 -101 94
-80 36 -214 43 -292 14z"/>
<path d="M3441 1709 c-12 -11 -26 -32 -32 -46 -5 -13 -9 -161 -9 -328 0 -167
4 -315 9 -328 28 -73 114 -91 167 -36 l29 30 0 335 0 336 -33 29 c-40 36 -97
40 -131 8z"/>
<path d="M3966 1716 c-157 -59 -211 -240 -106 -359 32 -36 57 -51 147 -87 119
-47 140 -58 148 -78 9 -23 -32 -52 -74 -52 -51 0 -83 12 -129 50 -50 40 -88
46 -130 20 -95 -59 -51 -170 97 -239 49 -23 69 -26 156 -26 118 0 158 16 222
89 84 95 84 212 0 303 -44 48 -89 74 -204 117 -81 31 -91 40 -72 63 18 21 101
12 140 -16 60 -44 136 -35 164 20 35 67 5 123 -90 170 -56 27 -81 33 -148 36
-54 2 -95 -2 -121 -11z"/>
<path d="M1971 4660 c-203 -43 -392 -164 -506 -325 -58 -82 -90 -148 -121
-252 -23 -75 -27 -107 -27 -213 0 -140 20 -235 73 -348 33 -71 628 -955 666
-989 31 -28 93 -31 123 -5 32 27 621 899 663 982 58 114 80 212 80 355 0 217
-67 389 -215 552 -91 99 -245 192 -382 229 -70 19 -289 27 -354 14z m272 -205
c177 -37 338 -163 415 -325 47 -100 62 -163 62 -268 0 -102 -23 -192 -69 -277
-42 -77 -516 -778 -530 -783 -10 -3 -506 725 -542 798 -41 81 -59 163 -59 265
0 172 51 296 175 421 60 61 98 90 155 118 128 62 259 80 393 51z"/>
<path d="M2044 4201 c-97 -25 -184 -94 -231 -183 -25 -48 -28 -63 -28 -153 0
-89 3 -106 27 -150 81 -155 245 -225 408 -176 62 19 81 31 135 84 47 46 68 77
84 120 79 216 -71 449 -297 462 -37 2 -81 1 -98 -4z m150 -220 c16 -9 37 -32
47 -51 60 -111 -46 -236 -165 -195 -50 17 -74 41 -87 86 -23 77 12 148 86 174
44 15 74 11 119 -14z"/>
<path d="M3831 3596 c-87 -48 -53 -171 49 -183 39 -4 49 -1 71 21 15 15 29 38
32 52 7 38 -10 91 -36 109 -26 18 -83 19 -116 1z"/>
</g>
</svg>
